<?xml version="1.0" ?><svg data-name="Layer 1" id="Layer_1" viewBox="0 0 100 100" xmlns="http://www.w3.org/2000/svg"><title/><rect height="3" width="5" x="58.25" y="73"/><path d="M57.18,13.78a7.49,7.49,0,0,0-14.86,0,20,20,0,0,0-19.07,20V79.45a13.31,13.31,0,0,0,13.3,13.3H63a13.31,13.31,0,0,0,13.3-13.3V33.7A20,20,0,0,0,57.18,13.78ZM49.75,9.25a5.5,5.5,0,0,1,5.4,4.5H44.35A5.5,5.5,0,0,1,49.75,9.25ZM39.6,31.75H60.4V44H39.6Zm34.65,47.7A11.31,11.31,0,0,1,63,90.75H36.55a11.31,11.31,0,0,1-11.3-11.3v-3.9a7.44,7.44,0,0,0,5,2.42V54.75h39V78a7.44,7.44,0,0,0,5-2.42Z"/><path d="M36,63.25V66H34V63.25H32.25V83h35V63.25ZM65.25,78h-9V71h9Z"/><rect height="8.25" width="16.8" x="41.6" y="33.75"/><rect height="4.53" width="35" x="32.25" y="56.75"/></svg>