<?xml version="1.0" ?><svg id="Layer_1_1_" style="enable-background:new 0 0 64 64;" version="1.1" viewBox="0 0 64 64" xml:space="preserve" xmlns="http://www.w3.org/2000/svg" xmlns:xlink="http://www.w3.org/1999/xlink"><g><path d="M60,39h-3V28C57,13.112,44.888,1,30,1S3,13.112,3,28v13.184C1.839,41.598,1,42.698,1,44v16c0,1.654,1.346,3,3,3h14   c1.654,0,3-1.346,3-3V44c0-1.302-0.839-2.402-2-2.816V15h22v24h-3c-1.654,0-3,1.346-3,3v5.682c0,1.201,0.714,2.283,1.818,2.757   L42,52.659V63h14V52.659l5.183-2.221C62.286,49.965,63,48.883,63,47.682V42C63,40.346,61.654,39,60,39z M55,28v17H43V14   c0-3.636-1.505-6.924-3.919-9.286C48.388,8.357,55,17.418,55,28z M30,3c5.728,0,10.442,4.402,10.949,10H19.051   C19.558,7.402,24.272,3,30,3z M20.919,4.714C18.505,7.076,17,10.364,17,14v27H5V28C5,17.418,11.612,8.357,20.919,4.714z M15,61H7   v-2h8V61z M19,60c0,0.552-0.448,1-1,1h-1v-4H5v4H4c-0.552,0-1-0.448-1-1V44c0-0.552,0.448-1,1-1h14c0.552,0,1,0.448,1,1V60z    M61,47.682c0,0.4-0.238,0.761-0.605,0.919L54,51.341V61H44v-9.659l-6.394-2.74C37.238,48.442,37,48.082,37,47.682V42   c0-0.552,0.448-1,1-1h3v4h-2v2h20v-2h-2v-4h3c0.552,0,1,0.448,1,1V47.682z"/><path d="M9,28c0-5.329,2.007-10.414,5.651-14.317l-1.461-1.365C9.198,16.593,7,22.162,7,28v11h2V28z"/><path d="M51,37h2v-9c0-4.041-1.067-8.019-3.087-11.502l-1.73,1.004C50.025,20.681,51,24.311,51,28V37z"/><rect height="2" width="2" x="51" y="39"/><path d="M46,59h6v-8h-6V59z M48,53h2v4h-2V53z"/><path d="M5,51h12v-6H5V51z M7,47h8v2H7V47z"/></g></svg>