<?xml version="1.0" ?><!DOCTYPE svg  PUBLIC '-//W3C//DTD SVG 1.1//EN'  'http://www.w3.org/Graphics/SVG/1.1/DTD/svg11.dtd'><svg enable-background="new 0 0 512 512" height="512px" id="Espadrille" version="1.1" viewBox="0 0 512 512" width="512px" xml:space="preserve" xmlns="http://www.w3.org/2000/svg" xmlns:xlink="http://www.w3.org/1999/xlink"><path d="M475.853,295.789l-1.436-8.926c-0.154-0.661-0.326-1.355-0.531-2.11c-1.788-6.553-4.882-13.886-9.165-21.734  c-0.285-0.539-0.737-1.182-1.261-1.792c-0.547-0.645-1.227-1.335-2.012-2.048c-1.551-1.41-3.67-3.032-6.125-4.684  c-4.717-3.18-11.113-6.816-19.01-10.807c-13.461-6.807-31.455-14.747-53.483-23.596c-31.722-12.749-63.386-23.993-75.527-28.236  l-4.047-1.414l-22.97,43.116L58.29,188.789c0,0-46.584,62-9.292,107H475.853z" fill="#F28F8F"/><path d="M92.573,288.002l-49.406-49.407c-1.023,5.07-1.637,10.281-1.636,15.496c0,1.83,0.084,3.661,0.239,5.487  l28.424,28.425H92.573z" fill="#F2EAE2"/><path d="M136.651,288.002l-81.539-81.539c-2.347,4.4-4.83,9.619-7.021,15.357l66.181,66.182H136.651z" fill="#F2EAE2"/><polygon fill="#F2EAE2" points="180.729,288.002 95.343,202.615 67.311,196.961 158.351,288.002 "/><polygon fill="#F2EAE2" points="224.806,288.002 150.554,213.749 122.523,208.096 202.429,288.002 "/><polygon fill="#F2EAE2" points="250.747,269.864 205.767,224.884 177.735,219.23 242.969,284.465 "/><polygon fill="#F2EAE2" points="266.067,241.106 260.979,236.019 232.947,230.365 258.289,255.708 "/><rect fill="#F2EAE2" height="25" width="424.471" x="50.998" y="297.002"/><path d="M484.469,294.329c0.001-1.984-0.274-5.986-1.9-11.944c-1.626-5.96-4.599-13.876-9.979-23.735  c-0.68-1.242-1.48-2.331-2.366-3.362c-1.719-1.988-3.771-3.787-6.164-5.612c-4.48-3.4-10.188-6.858-16.88-10.471  c-11.695-6.304-26.374-13.013-41.898-19.594c-23.277-9.864-48.426-19.407-67.783-26.499c-19.354-7.09-32.909-11.723-32.944-11.735  c-3.259-1.113-6.822,0.293-8.441,3.333l-21.221,39.833L59.674,181.14c-2.647-0.534-5.358,0.498-6.98,2.657  c-0.183,0.249-6.353,8.472-12.578,21.262c-3.11,6.398-6.235,13.944-8.604,22.244c-2.364,8.3-3.979,17.364-3.98,26.788  c-0.001,7.54,1.042,15.315,3.591,23.006c2.303,6.961,5.862,13.834,10.876,20.336v26.569c0,1.843,0.747,3.646,2.05,4.95  c1.304,1.303,3.106,2.05,4.95,2.05h428.471c1.843,0,3.646-0.747,4.95-2.05c1.303-1.305,2.05-3.107,2.05-4.95v-29  c0-0.05-0.007-0.099-0.007-0.147C484.466,294.696,484.469,294.526,484.469,294.329z M55.998,317.002v-15h189.288h78.29h146.893v15  H55.998z M41.531,254.09c-0.001-5.214,0.612-10.426,1.636-15.496c0.51-2.525,1.113-5.018,1.809-7.453  c0.917-3.22,1.978-6.338,3.116-9.321c2.19-5.738,4.674-10.958,7.021-15.357c0.596-1.116,1.182-2.185,1.752-3.19  c1.746-3.086,3.339-5.63,4.564-7.498l5.882,1.186l28.032,5.653l27.181,5.481l28.03,5.653l27.182,5.481l28.031,5.653l27.181,5.481  l28.032,5.653l7.042,1.42l-1.954,3.668l-7.778,14.601l-7.542,14.157l-7.778,14.601l-1.885,3.537h-16.278h-22.377h-21.7h-22.378  h-21.699h-22.379H92.573H70.194H52.412c-3.691-4.979-6.271-10.095-8-15.308c-1.429-4.313-2.267-8.703-2.642-13.117  C41.615,257.751,41.531,255.92,41.531,254.09z M305.653,196.576c12.454,4.352,43.804,15.492,75.313,28.155  c19.07,7.662,38.207,15.892,53.091,23.419c7.435,3.756,13.813,7.349,18.471,10.492c2.326,1.564,4.22,3.02,5.556,4.235  c0.668,0.605,1.195,1.149,1.565,1.585c0.372,0.436,0.583,0.764,0.651,0.893c4.91,8.999,7.448,15.899,8.762,20.715  c0.188,0.691,0.346,1.327,0.487,1.933H316.576h-59.63L305.653,196.576z" fill="#5A5954"/></svg>