<?xml version="1.0" ?><!DOCTYPE svg  PUBLIC '-//W3C//DTD SVG 1.1//EN'  'http://www.w3.org/Graphics/SVG/1.1/DTD/svg11.dtd'><svg height="80.1px" id="Layer_1" style="enable-background:new 0 0 80.1 80.1;" version="1.1" viewBox="0 0 80.1 80.1" width="80.1px" xml:space="preserve" xmlns="http://www.w3.org/2000/svg" xmlns:xlink="http://www.w3.org/1999/xlink"><style type="text/css">
	.st0{fill:#1C2B36;}
</style><g><path class="st0" d="M44.6,52.9l-1,0.5l-0.7-0.9c-1.1-1.4-2-3.2-2.8-5.1c-0.7,1.8-1.7,3.7-2.8,5.1l-0.7,0.9l-1-0.5   c-4.8-2.5-6.9-5.8-7.9-8.5c-0.8,3.3-1.2,8.3,0.5,14.2c2.4,8.3,0.6,17.5,0.4,18.5c0.6,0.9,5.3,2.2,11.6,2.2c5.8,0,11-1.4,11.6-2.2   c-0.2-0.9-2-10.1,0.4-18.5c1.7-5.9,1.2-10.9,0.5-14.2C51.5,47,49.4,50.4,44.6,52.9z"/><path class="st0" d="M55,7.6c-0.9-0.3-5.1-0.6-8.4-2.7c0.3,0.5,0.6,0.9,0.9,1.4c0.7,0.8,1.5,1.6,2.3,2.3h0l1,1l-1.5,0.2l-0.2,0   l-0.1,0c-0.1,0-0.2,0-0.3,0L48,9.9c0.3,0.3,0.6,0.5,0.9,0.8c0.7,0.5,1.4,1.1,2.2,1.3l1,0.4l-0.7,0.7c-0.3,0.3-0.6,0.6-0.9,0.8   c-0.3,0.2-0.6,0.5-0.9,0.7c-0.6,0.5-1.2,0.9-1.8,1.3c-1.2,0.8-2.5,1.6-3.8,2.4c-1.3,0.7-2.4,1.7-3.1,2.9c-0.3,0.5-0.5,1-0.7,1.5   c-0.2-0.5-0.4-1.1-0.7-1.5c-0.8-1.2-1.9-2.2-3.1-2.9c-1.3-0.8-2.6-1.6-3.8-2.4c-0.6-0.4-1.2-0.9-1.8-1.3c-0.3-0.2-0.6-0.5-0.9-0.7   c-0.3-0.3-0.6-0.5-0.9-0.8l-0.7-0.7l1-0.4c0.7-0.3,1.5-0.8,2.2-1.3c0.3-0.2,0.6-0.5,0.9-0.8l-0.8-0.1c-0.1,0-0.2,0-0.3,0l-0.1,0   l-0.2,0l-1.5-0.2l1-1h0c0.8-0.7,1.6-1.4,2.3-2.3c0.3-0.4,0.7-0.9,0.9-1.4C30.1,7,25.9,7.3,25,7.6c-1.8,0.6-5.1,39.6-3.6,48.9   c1.2,0.4,3,0.4,4.3,0.1c-0.1-10.5,1.9-35.5,2.5-34.9c0.6,0.6,0.9,3.4,1.9,6.1c0.8,2.1,1,5.8,0.9,6.3c-0.8,2.6-3.7,6.8-3.4,8.4   c0.4,2,1.6,5.4,8.6,9.1c1.8-2.3,3.3-6.2,3.9-8.7c0.6,2.5,2.1,6.5,3.9,8.7c7-3.6,8.2-7.1,8.6-9.1c0.3-1.6-2.6-5.8-3.4-8.4   c-0.1-0.5,0.1-4.2,0.9-6.3c1-2.8,1.3-5.5,1.9-6.1c0.6-0.6,2.5,24.4,2.5,34.9c1.3,0.3,3.1,0.4,4.3-0.1C60.1,47.2,56.8,8.1,55,7.6z    M32.1,8.5l1.7,0.2l1.5,0.2l-1,1c-0.3,0.4-0.7,0.7-1,1c-0.4,0.3-0.7,0.6-1.1,0.9c-0.4,0.3-0.8,0.6-1.2,0.8   c-0.1,0.1-0.3,0.2-0.4,0.2c0,0,0,0,0.1,0.1c0.3,0.2,0.5,0.5,0.8,0.7c0.5,0.5,1.1,1,1.7,1.4c0.2,0.1,0.3,0.2,0.5,0.4c0,0,0,0,0,0   c0,0,0.1,0.1,0.1,0.1c1,0.8,2,1.5,3,2.2c1.3,0.8,2.4,1.9,3.2,3.3c0.1,0.2,0.2,0.3,0.3,0.5c0.1-0.2,0.2-0.3,0.3-0.5   c0.7-1.4,1.9-2.5,3.2-3.3c1-0.7,2-1.4,3-2.2c0,0,0.1-0.1,0.1-0.1c0,0,0,0,0,0c0.2-0.1,0.3-0.2,0.5-0.4c0.6-0.5,1.1-0.9,1.7-1.4   c0.3-0.2,0.5-0.5,0.8-0.7c0,0,0,0,0.1-0.1c-0.1-0.1-0.3-0.2-0.4-0.2c-0.4-0.3-0.8-0.6-1.2-0.8c-0.4-0.3-0.7-0.6-1.1-0.9   c-0.4-0.3-0.7-0.6-1-1l-1-1l1.5-0.2L48,8.5c-0.4-0.6-0.8-1.1-1.1-1.7c-0.5-0.9-0.8-1.9-1.1-2.8C45.3,2.5,44,0.8,40,0.8   c-3.9,0-5.2,1.7-5.7,3.1c-0.3,1-0.6,1.9-1.1,2.8C32.9,7.4,32.5,7.9,32.1,8.5z M35.4,5c0.4-2.1,2.9-2.7,4.6-2.8   c1.7,0.1,4.2,0.6,4.6,2.8c0.1,0.8-0.1,1.8-0.1,2c-1.3,4.2-3.3,5.3-4.5,13.1c-1.1-7.8-3.2-8.9-4.5-13.1C35.5,6.9,35.3,5.9,35.4,5z"/></g></svg>