<?xml version="1.0" ?><!DOCTYPE svg  PUBLIC '-//W3C//DTD SVG 1.1//EN'  'http://www.w3.org/Graphics/SVG/1.1/DTD/svg11.dtd'><svg height="512px" style="enable-background:new 0 0 512 512;" version="1.1" viewBox="0 0 512 512" width="512px" xml:space="preserve" xmlns="http://www.w3.org/2000/svg" xmlns:xlink="http://www.w3.org/1999/xlink"><g id="_x33_35_x2C__Mountain_x2C__hill_x2C__landscape_x2C__nature_x2C__evening"><g><path d="M44.123,330.086c1.79-1.884,3.519-3.768,5.194-5.63l1.895-2.276    c5.297-6.271,9.52-11.26,13.991-16.082c4.389-4.781,9.044-9.396,15.192-14.964l0.319-0.414c-0.972-1.159-5.598-6.064-8.361-9.169    l-0.486-0.538c-4.285,3.685-7.74,6.788-11,10.06c-3.694,3.704-7.193,7.698-11.415,13.143c-5.278,6.809-9.086,11.445-13.225,15.854    c-3.001,3.209-6.179,6.271-10.225,9.955C32.076,330.21,38.627,330.355,44.123,330.086 M314.119,282.192    c0.93,1.635,1.79,3.229,2.598,4.802l0.061,0.124c0.911,1.801,1.781,3.581,2.639,5.443l0.125,0.29l0.011,0.021l0.021,0.041    l0.414,0.911l0.063,0.125c2.949,6.643,5.857,12.625,8.899,18.564c2.772,5.402,5.743,10.908,9.023,16.889l16.807-0.082    c10.183-0.083,20.345-0.145,30.601-0.063l-2.98-4.305c-1.396-2.049-2.783-4.057-4.212-6.064l0,0l-0.021-0.021l-0.02-0.02l0,0    l-0.021-0.021l-0.01-0.02l-0.053-0.063l-0.02-0.041l-0.042-0.043l-0.062-0.104l-0.063-0.082l-0.021-0.041l-0.041-0.041    l-0.063-0.084l-0.104-0.145l-0.02-0.021l-0.063-0.104l-0.311-0.413l0,0l-0.062-0.104l-0.061-0.084l-0.064-0.082h-0.01    l-0.062-0.083l-0.136-0.165l-0.061-0.104l-0.125-0.166h-0.01l-0.052-0.083l-0.196-0.27l-0.063-0.082l-0.072-0.083l-0.021-0.021    l-0.104-0.146l-0.062-0.082l-0.031-0.041l-0.032-0.063l-0.071-0.084l-0.072-0.082l-0.021-0.041l-0.043-0.041l-0.061-0.084    l-0.063-0.104l-0.041-0.041l-0.032-0.041l-0.071-0.083l-0.197-0.248l-0.061-0.083l-0.053-0.083l-0.021-0.021l-0.062-0.083    l-0.062-0.083l-0.063-0.082h-0.021l-0.062-0.083l-0.062-0.104l-0.146-0.165l-0.062-0.084l-0.074-0.082l-0.071-0.104l-0.062-0.083    l-0.072-0.083l0,0l-0.073-0.082l-0.062-0.083l-0.072-0.104h-0.01l-0.063-0.083l-0.062-0.083l-0.072-0.083l-0.01-0.021    l-0.063-0.062l-0.072-0.083l-0.071-0.104l-0.021-0.021l-0.042-0.063l-0.083-0.082l-0.061-0.084l-0.021-0.041l-0.051-0.041    l-0.074-0.104l-0.072-0.083l-0.031-0.042l-0.04-0.041l-0.073-0.082l-0.072-0.104l-0.031-0.021l-0.041-0.062l-0.072-0.083    l-0.073-0.083l-0.03-0.041l-0.041-0.042l-0.414-0.496l-0.021-0.021l-0.082-0.104l-0.072-0.082l-0.053-0.063l-0.02-0.021    l-0.084-0.083l-0.062-0.082l-0.062-0.083l-0.021-0.021l-0.071-0.083l-0.363-0.414l-0.021-0.021l-0.226-0.248l-0.539-0.602    l-0.072-0.082l-0.074-0.104l-0.019-0.021l-0.063-0.063l-0.082-0.083l-0.072-0.082l-0.031-0.042l-0.051-0.041l-0.074-0.083    l-0.165-0.186l-0.071-0.084l-0.084-0.082l-0.052-0.063l-0.021-0.021l-0.083-0.083l-0.082-0.082l-0.063-0.063l-0.02-0.021    l-0.084-0.103l-0.072-0.083l-0.072-0.063l-0.01-0.021l-0.082-0.083l-0.074-0.082l-0.082-0.083l-0.123-0.124l0,0l-0.114-0.125l0,0    l-0.114-0.124l0,0l-0.113-0.103l-0.115-0.125l0,0l-0.113-0.124h-0.011l-0.104-0.124l0,0l-0.114-0.104l-0.112-0.125l0,0    l-0.114-0.123l0,0l-0.113-0.104l0,0l-0.104-0.125h-0.011l-0.114-0.104v-0.021l-0.104-0.103l-0.114-0.125l0,0l-0.114-0.104l0,0    l-0.104-0.124h-0.01l-0.104-0.103h-0.01l-0.104-0.125l0,0l-0.104-0.104h-0.01l-0.104-0.124H366.7l-0.104-0.104l0,0l-0.104-0.104    v-0.021l-0.104-0.104h-0.011l-0.113-0.104l0,0l-0.104-0.125l0,0l-0.104-0.104l0,0l-0.115-0.104l0,0l-0.104-0.123h-0.01    l-0.102-0.104l0,0l-0.104-0.104l0,0l-0.104-0.104v-0.021l-0.104-0.104h-0.012l-0.104-0.104l0,0l-0.104-0.104h-0.01l-0.094-0.104    l-0.01-0.021l-0.104-0.083v-0.021l-0.104-0.104l0,0l-0.104-0.104l0,0l-0.104-0.104l0,0l-0.104-0.103h-0.011l-0.093-0.104h-0.011    l-0.093-0.104l-0.011-0.021l-0.093-0.082l-0.011-0.021l-0.093-0.082l-0.011-0.021l-0.093-0.082l-0.011-0.021l-0.093-0.104h-0.011    l-0.093-0.082l-0.011-0.021l-0.093-0.104h-0.011l-0.093-0.104h-0.011l-0.093-0.104h-0.011l-0.093-0.103h-0.011l-0.093-0.104    h-0.011l-0.093-0.104l0,0l-0.104-0.083v-0.021l-0.104-0.083v-0.021l-0.104-0.082v-0.021l-0.094-0.082l-0.01-0.021l-0.094-0.082    l-0.01-0.021l-0.083-0.082h-0.011l-0.093-0.104h-0.011l-0.093-0.104l0,0l-0.104-0.104l0,0l-0.104-0.104l0,0l-0.29-0.29l0,0    l-0.289-0.289h-0.011l-0.278-0.29v-0.021l-0.29-0.268l-0.011-0.021l-0.279-0.27v-0.021l-0.289-0.269v-0.021l-0.291-0.27v-0.021    l-0.279-0.27l-0.01-0.021l-0.27-0.269v-0.021l-0.289-0.27l0,0l-0.279-0.289l0,0l-0.28-0.289l0,0l-0.279-0.29h-0.011l-0.268-0.269    v-0.021l-0.279-0.27l0,0l-0.281-0.289l0,0l-0.269-0.29h-0.011l-0.278-0.29l0,0l-0.269-0.289l0,0l-0.271-0.291l0,0l-0.278-0.268    l-0.012-0.021L356,294.425v-0.021l-0.269-0.27v-0.021l-0.271-0.269v-0.021l-0.279-0.289l0,0l-0.268-0.29h-0.012l-0.538-0.58l0,0    l-0.269-0.29v-0.02h-0.021l-0.518-0.58h-0.01l-0.539-0.6l-0.009-0.021l-0.538-0.6l0,0l-0.27-0.311l0,0l-0.021-0.021l-0.797-0.91    h-0.011l-0.27-0.332l0,0l-0.537-0.641l0,0l-0.279-0.311l-0.01-0.021l-0.271-0.311l0,0l-0.547-0.683l0,0l-0.549-0.662v-0.021    L348.61,286l0,0l-0.558-0.703l0,0l-0.281-0.352l0,0l-0.279-0.352v-0.021l-0.278-0.352h-0.011l-0.279-0.373l0,0l-0.279-0.372l0,0    l-0.291-0.372l0,0l-0.578-0.766l0,0l-0.58-0.767l0,0l-0.289-0.414l0,0l-0.581-0.808l0,0l-0.361-0.496l-0.351-0.477l0,0    l-0.695-0.931v-0.021l-0.351-0.435v-0.021l-0.332-0.435l0,0l-0.672-0.869h-0.011l-0.332-0.434l-0.32-0.414l-0.32-0.394l0,0    l-0.331-0.414l0,0l-0.642-0.767l-0.311-0.393l-0.322-0.373l-0.318-0.352l-0.311-0.373l0,0l-0.311-0.352l0,0l-0.311-0.352l0,0    l-0.311-0.331l-0.311-0.353l-0.312-0.33l-0.311-0.332l-0.311-0.311l-0.311-0.33l-0.311-0.311l-0.311-0.311l0,0l-0.309-0.311    l-0.311-0.311l-0.312-0.311l-0.311-0.29l-0.311-0.311l0,0l-0.311-0.29l-0.331-0.289l-0.311-0.29l-0.321-0.311l-0.319-0.269v-0.021    l-0.331-0.269v-0.021l-0.322-0.27h-0.01l-0.321-0.289l-0.33-0.291l-0.342-0.289l0,0l-0.332-0.29l-0.341-0.29l0,0l-0.342-0.269    l-0.351-0.29l0,0l-0.353-0.289l0,0l-0.352-0.29l-0.363-0.311l-0.361-0.29l0,0l-0.373-0.289l0,0l-0.373-0.29l-0.371-0.311    l-0.374-0.29h-0.009l-0.385-0.311l0,0l-0.393-0.311l0,0l-0.393-0.311l-0.404-0.311l0,0l-0.403-0.33l0,0l-0.414-0.311l-0.425-0.332    l-0.423-0.331l-0.436-0.352l-0.042,0.207l-0.04,0.187l-0.032,0.186l-0.041,0.187l-0.041,0.187l-0.031,0.186l-0.041,0.188h-0.01    l-0.032,0.186l-0.042,0.187l-0.04,0.165l0,0l-0.042,0.187l-0.041,0.187l0,0l-0.042,0.186l-0.042,0.166l0,0l-0.041,0.187l0,0    l-0.041,0.165l-0.041,0.188l0,0l-0.042,0.186l0,0l-0.04,0.166l0,0l-0.043,0.165l0,0l-0.041,0.187l0,0l-0.041,0.166l0,0    l-0.042,0.165l0,0l-0.04,0.187l0,0l-0.043,0.165l0,0l-0.041,0.166l0,0l-0.041,0.165l-0.042,0.166h-0.011l-0.04,0.187l0,0    l-0.042,0.145h-0.011l-0.04,0.187l-0.043,0.166l0,0l-0.041,0.165l0,0l-0.041,0.165l-0.042,0.166l0,0l-0.04,0.166h-0.011    l-0.042,0.145l0,0l-0.051,0.166l0,0l-0.043,0.165l-0.04,0.165l-0.042,0.166h-0.01l-0.052,0.145l-0.042,0.166l0,0l-0.042,0.166    l-0.04,0.165h-0.011l-0.053,0.146l0,0l-0.04,0.165l-0.043,0.165l-0.061,0.146l-0.043,0.165l-0.04,0.166h-0.011l-0.042,0.145    h-0.011l-0.04,0.166l-0.053,0.145l0,0l-0.051,0.166l-0.042,0.166l-0.062,0.145l0,0l-0.042,0.145l0,0l-0.051,0.166l-0.053,0.166    l0,0l-0.062,0.145l-0.042,0.165l-0.051,0.146l-0.053,0.145l-0.072,0.207l-0.061,0.186l0,0l-0.064,0.188h-0.01l-0.062,0.186l0,0    l-0.062,0.187v0.021l-0.063,0.166l-0.012,0.021l-0.071,0.165v0.021l-0.062,0.165v0.021l-0.063,0.166l-0.012,0.021l-0.071,0.165    v0.021l-0.062,0.166v0.041l-0.074,0.166l-0.01,0.02l-0.062,0.166v0.021l-0.062,0.166l-0.021,0.021l-0.063,0.165l-0.009,0.021    l-0.063,0.165l-0.01,0.021l-0.063,0.165l-0.01,0.042l-0.062,0.145l-0.011,0.041l-0.063,0.145l-0.02,0.041l-0.063,0.166    l-0.011,0.021l-0.062,0.166l-0.011,0.041l-0.071,0.145l-0.011,0.041l-0.063,0.146l-0.019,0.041l-0.063,0.145l-0.021,0.063    l-0.062,0.146l-0.01,0.041l-0.063,0.145l-0.021,0.041l-0.062,0.145l-0.021,0.063l-0.052,0.145l-0.03,0.042l-0.063,0.146    l-0.021,0.062l-0.051,0.124l-0.031,0.063l-0.051,0.145l-0.043,0.063l-0.051,0.124l-0.031,0.062l-0.051,0.146l-0.031,0.062    l-0.064,0.125l-0.019,0.063l-0.063,0.145l-0.029,0.063l-0.053,0.123l-0.031,0.083l-0.051,0.124l-0.043,0.063l-0.051,0.124    l-0.031,0.083l-0.062,0.124l-0.032,0.083l-0.051,0.124l-0.041,0.083l-0.053,0.123l-0.041,0.084l-0.053,0.104l-0.04,0.104    l-0.053,0.104l-0.04,0.104l-0.053,0.104l-0.041,0.103l-0.063,0.104l-0.041,0.104l-0.042,0.104l-0.051,0.104l-0.053,0.104    l-0.04,0.104l-0.063,0.104l-0.04,0.104l-0.042,0.104l-0.062,0.104l-0.043,0.104l-0.051,0.123l-0.053,0.104l-0.051,0.104    l-0.053,0.104l-0.051,0.104l-0.053,0.104l-0.041,0.124l-0.051,0.104l-0.063,0.104l-0.041,0.104l-0.063,0.124l-0.041,0.084    l-0.063,0.123l-0.053,0.104l-0.061,0.125l-0.043,0.103l-0.061,0.124l-0.043,0.083l-0.061,0.146l-0.043,0.082l-0.071,0.146    l-0.218,0.456l-0.04,0.082l-0.073,0.145L314.119,282.192z M429.257,315.971l-1.965-3.953c-1.171-2.422-2.433-5.092-3.8-8.197    c-0.743-1.655-3.643-7.223-6.271-11.652c-1.5-2.545-2.772-4.574-3.083-4.739c-5.464-3.104-11.093-6.995-16.454-10.7l-5.029-3.457    c-2.381-1.655-4.325-3.229-6.127-4.946c-1.801-1.697-3.466-3.519-5.298-5.692c-1.696-2.007-3.446-3.869-5.175-5.712l-0.144-0.146    c-2.35-2.504-4.688-5.008-6.646-7.492l-1.014-1.241c-5.391-6.582-10.803-11.239-16.806-16.413l-3.085-2.67    c-4.18,3.291-7.937,5.484-11.517,7.575c-6.364,3.705-12.14,7.058-18.575,16.227c-1.729,2.464-3.189,4.306-4.451,5.899    c-2.835,3.601-4.616,5.857-6.686,12.293l0.063,0.084l0.073,0.104l0.03,0.041l0.082,0.104l0.021,0.063l0.082,0.082l0.042,0.063    l0.062,0.104l0.042,0.063l0.062,0.082l0.042,0.083l0.072,0.083l0.053,0.062l0.062,0.104l0.042,0.063l0.062,0.082l0.053,0.104    l0.227,0.331h0.01l0.042,0.063l0.062,0.125l0.042,0.041l0.083,0.123l0.04,0.063l0.073,0.125l0.03,0.041l0.085,0.125l0.029,0.041    l0.093,0.145l0.021,0.041l0.094,0.146l0.021,0.041l0.092,0.145l0.021,0.021l0.104,0.166l0.011,0.021l0.114,0.164v0.021    l0.113,0.166v0.02l0.113,0.188l0.238,0.372h0.011l0.104,0.187l0.011,0.021l0.104,0.166l0.021,0.041l0.093,0.146l0.237,0.393    l0.032,0.063l0.082,0.145l0.289,0.455l0.178,0.311l0.072-0.145l0,0l0.071-0.166h0.011l0.062-0.145v-0.021l0.073-0.146l0,0    l0.072-0.145v-0.021l0.072-0.145l0,0l0.073-0.145l0,0l0.062-0.166l0,0l0.072-0.145h0.01l0.063-0.145l0,0l0.062-0.146v-0.021    l0.072-0.145l0,0l0.072-0.145l0,0l0.063-0.146l0,0l0.062-0.165l0,0l0.073-0.145l0,0l0.072-0.146l0,0l0.062-0.145l0,0l0.063-0.145    l0,0l0.061-0.145l0,0l0.063-0.145l0,0l0.063-0.146l0,0l0.062-0.145l0,0l0.063-0.146l0,0l0.072-0.145l0,0l0.051-0.145h0.01    l0.053-0.145l0,0l0.062-0.146l0,0l0.062-0.146l0,0l0.063-0.145l0,0l0.063-0.145l0,0l0.063-0.146l0,0l0.062-0.145l0.051-0.124l0,0    l0.053-0.145l0.062-0.145l0.063-0.146l0.052-0.145l0.052-0.123v-0.021l0.063-0.124l0,0l0.061-0.146l0.043-0.145l0.061-0.145l0,0    l0.053-0.124h0.011l0.04-0.146l0,0l0.063-0.145l0,0l0.051-0.124l0.053-0.146l0,0l0.051-0.145l0.053-0.145l0,0l0.052-0.124    l0.052-0.146l0.052-0.145l0.052-0.124l0.052-0.146l0.052-0.145l0,0l0.04-0.124l0,0l0.053-0.146l0,0l0.051-0.145l0.043-0.124    l0.051-0.146l0.053-0.145l0.04-0.145l0.053-0.124l0.071-0.187l0.064-0.207l0,0l0.061-0.186L315.06,267v-0.02l0.063-0.188l0,0    l0.061-0.186l0.063-0.207l0,0l0.063-0.187l0,0l0.062-0.207l0,0l0.063-0.187l0,0l0.061-0.207l0,0l0.063-0.186l0,0l0.063-0.207l0,0    l0.062-0.187v-0.021l0.053-0.187l0,0l0.062-0.187v-0.02l0.053-0.188v-0.02l0.062-0.188l0,0l0.062-0.207l0,0l0.166-0.6v-0.021    l0.104-0.394l0.011-0.021l0.051-0.187v-0.021l0.053-0.207l0.051-0.187l0.104-0.414l0.01-0.021l0.051-0.206l0,0l0.104-0.414v-0.021    l0.104-0.414v-0.021l0.053-0.207l0.011-0.021l0.04-0.187v-0.021l0.053-0.207l0.011-0.021l0.04-0.207v-0.021l0.053-0.187    l0.011-0.042l0.04-0.186v-0.021l0.043-0.207l0.01-0.02l0.051-0.207v-0.021l0.043-0.207l0.01-0.02l0.041-0.207l0.01-0.042l0,0    l0.094-0.435l0.01-0.021l0.083-0.455l0.011-0.021l0.053-0.248l0.04-0.207v-0.021l0.042-0.229l0.01-0.02l0.094-0.455l0.01-0.043    l0.041-0.206l0.011-0.042l0.042-0.207v-0.041l0.04-0.207l0.011-0.041l0.042-0.207l0.011-0.041l0.04-0.229v-0.041l0.042-0.207    l0.011-0.041l0.042-0.228l0.009-0.042l0.042-0.207v-0.062l0.043-0.208l0.008-0.041l0.043-0.228l0.01-0.042l0.043-0.227v-0.041    l0.008-0.043l0.012-0.02v-0.021v-0.02l0.01-0.021l0.011-0.021v-0.041l0.011-0.02l0.01-0.021v-0.021v-0.021l0.021-0.021v-0.02l0,0    v-0.021l0.021-0.041l0,0l0.008-0.021l0.012-0.041l0,0l0.01-0.041l0.011-0.021v-0.021l0.021-0.021v-0.021l0.021-0.021v-0.041h0.011    l0.019-0.021l0.012-0.021v-0.021l0,0l0.021-0.041l0,0l0.021-0.021l0.011-0.041h0.011l0.011-0.041h0.009l0.01-0.021l0.021-0.041    l0,0l0.021-0.021l0.01-0.021l0.021-0.021l0.011-0.041h0.009l0.021-0.021l0.01-0.02l0.011-0.021l0.021-0.02v-0.021l0.021-0.021    l0.02-0.02l0.021-0.021l0.021-0.02l0.021-0.043l0.021-0.02l0.02-0.021l0.021-0.02l0.021-0.021l0.021-0.021l0.03-0.02l0.011-0.021    l0.042-0.041l0,0l0.083-0.082l0,0h0.01l0.043-0.042h0.01l0.094-0.062l0,0l0.051-0.042l0,0l0.092-0.062h0.012l0.104-0.063v-0.021    l0.053-0.021l0,0l0.051-0.021l0,0l0.053-0.021l0.008-0.021l0.104-0.041h0.011l0.053-0.021l0,0l0.051-0.021h0.011l0.042-0.021    h0.021l0.041-0.021h0.011l0.052-0.021l0,0h0.063l0,0l0.061-0.021l0,0l0.053-0.021h0.011h0.051h0.011l0.053-0.021h0.009h0.053    h0.011h0.051l0,0l0.063-0.021h0.063l0,0h0.052h0.009h0.063h0.011h0.04h0.021h0.043h0.021h0.04h0.021l0.041,0.021h0.021h0.042    h0.021h0.04h0.021l0.043,0.021h0.02h0.041l0,0l0.043,0.021h0.02h0.021h0.032l0.01,0.021h0.041h0.01h0.021l0.042,0.021l0.03,0.021    h0.021h0.021l0.043,0.021l0,0h0.029l0.031,0.021l0,0l0.043,0.021h0.02h0.021l0.021,0.021h0.012l0.031,0.021h0.029l0.011,0.021    h0.032l0.01,0.021h0.02h0.011l0.031,0.021l0,0l0.021,0.021l0.031,0.021h0.009l0.031,0.021h0.011l0.021,0.021l0.031,0.021h0.009    h0.011l0.011,0.02h0.021l0.011,0.021l0.031,0.021h0.02l0.021,0.021l0.021,0.021h0.011l0.021,0.02l0.029,0.021l3.085,2.4    l0.04,0.042l0.414,0.31l0.031,0.042l0.86,0.663l0.03,0.02l0.403,0.311l0.032,0.042l0.393,0.31l0.031,0.021l0.393,0.311l0.03,0.02    l0.385,0.311l0.04,0.021l0.374,0.289l0.03,0.021c0.816,0.662,1.604,1.262,2.35,1.883l0.361,0.29l0.021,0.021l0.353,0.29    l0.021,0.021l0.351,0.27l0.011,0.021l0.352,0.29l0.021,0.021l0.342,0.29l0.021,0.021l0.341,0.269l0.021,0.021l0.331,0.289    l0.021,0.021l0.33,0.269l0.021,0.021l0.331,0.29h0.011l0.672,0.601l0.021,0.02l0.32,0.291h0.012l0.66,0.6l0.021,0.021l0.311,0.29    h0.021l0.319,0.311h0.011l0.32,0.311h0.012l0.32,0.311l0.011,0.021l0.311,0.29l0.019,0.021l0.312,0.31h0.021l0.311,0.311    l0.011,0.021l0.321,0.311v0.021l0.641,0.642h0.021l0.311,0.331l0.01,0.021l0.321,0.332l0,0l0.321,0.352h0.01l0.311,0.352h0.01    l0.32,0.352h0.012l0.32,0.373l0,0l0.332,0.352v0.021l0.33,0.353v0.021l0.331,0.372l0,0l0.332,0.394l0,0l0.331,0.394l0,0    l0.33,0.393l0,0l0.342,0.414h0.012l0.331,0.414l0,0l0.33,0.414h0.011l0.342,0.435l0,0l0.352,0.435l0,0l0.352,0.455l0,0    l0.352,0.455l0,0l0.353,0.455l0,0l1.097,1.471l1.117,1.531l0,0l0.29,0.393l0,0l0.279,0.394l0,0l0.278,0.373l0,0l0.292,0.372l0,0    l0.269,0.373l0,0l0.279,0.372l0,0l0.278,0.372l0,0l0.518,0.663l0.021,0.042l0.011,0.02l0.268,0.332v0.021l0.281,0.331l0,0    l1.044,1.324l0.032,0.042l0,0l0.021,0.041l0.518,0.621l0,0l0.269,0.331l0,0l0.269,0.331l0,0l0.26,0.311h0.011l0.258,0.311    l0.01,0.021l0.518,0.621h0.012l0.258,0.311l0,0l0.538,0.6v0.021l0.259,0.289l0,0l0.259,0.311h0.011l0.258,0.29l0,0l0.269,0.311    l0,0l0.26,0.29h0.011l0.247,0.289h0.011l0.26,0.29h0.009l0.26,0.29v0.021l0.269,0.269l0,0l0.26,0.291h0.01l0.248,0.289h0.01    l0.259,0.29h0.011l0.26,0.29l0,0l0.796,0.848h0.011l0.258,0.27l0.011,0.021l0.26,0.27h0.009l0.26,0.269l0.01,0.021l0,0    l1.076,1.097v0.021l0.269,0.27l0,0l0.271,0.269v0.021l0.268,0.27h0.012l0.268,0.27l0.011,0.02l0.271,0.27l0,0l0.269,0.27    l0.011,0.02l0.278,0.27l0,0l0.269,0.289l0,0l0.281,0.27l0.008,0.021l0.271,0.269h0.01l0.279,0.29l0,0l0.279,0.289h0.01l0.269,0.27    l0.011,0.021l0.281,0.269v0.021l0.289,0.27v0.021l0.104,0.083l0,0l0.104,0.104v0.02l0.093,0.083l0.011,0.021l0.093,0.083h0.011    l0.093,0.104h0.011l0.094,0.104h0.01l0.094,0.104l0.01,0.02l0.094,0.084l0.008,0.02l0.096,0.084l0.008,0.02l0.096,0.084    l0.008,0.02l0.104,0.083v0.021l0.094,0.083l0.01,0.021l0.104,0.104l0,0l0.104,0.104l0,0l0.104,0.104l0,0l0.104,0.104l0,0    l0.104,0.104l0,0l0.104,0.104l0.011,0.021l0.093,0.083l0.011,0.021l0.104,0.104l0,0l0.104,0.104h0.01l0.094,0.104h0.01    l0.104,0.104l0,0l0.104,0.104v0.02l0.104,0.104l0,0l0.104,0.104h0.011l0.093,0.104h0.021l0.093,0.104l0.011,0.021l0.104,0.104l0,0    l0.104,0.103l0,0l0.104,0.104h0.009l0.104,0.124h0.011l0.104,0.104l0,0l0.104,0.104l0,0l0.104,0.125h0.01l0.104,0.104h0.011    l0.104,0.104v0.02l0.104,0.104l0,0l0.114,0.104l0,0l0.114,0.125l0,0l0.104,0.104l0,0l0.104,0.124h0.011l0.111,0.104l0,0    l0.104,0.124l0,0l0.115,0.104l0,0l0.113,0.124l0,0l0.104,0.104l0,0l0.114,0.124h0.011l0.104,0.104l0,0l0.113,0.125l0.115,0.104    v0.02l0.104,0.104l0,0l0.122,0.125l0,0l0.104,0.104l0.114,0.124h0.011l0.104,0.124l0,0l0.114,0.104v0.021l0.113,0.104l0.114,0.124    l0,0l0.114,0.125l0.123,0.123l0.104,0.104l0.125,0.125l0.113,0.124l0.082,0.083l0.094,0.104l0.082,0.082l0,0l0.084,0.104    l0.094,0.083l0.093,0.104l0,0l0.083,0.083l0.082,0.104l0.082,0.083l0.021,0.021l0.072,0.083l0.082,0.083l0.095,0.082v0.021    l0.083,0.082l0.082,0.083l0.082,0.104l0.021,0.02l0.062,0.063l0.083,0.104l0.084,0.082l0.02,0.021l0.063,0.082l0.082,0.084    l0.083,0.082l0.021,0.041l0.063,0.063l0.084,0.083l0.082,0.104l0.021,0.021l0.061,0.063l0.166,0.186l0.021,0.041l0.062,0.042    l0.084,0.104l0.072,0.083l0.031,0.041l0.051,0.063l0.083,0.082l0.073,0.084l0.041,0.041l0.041,0.062l0.197,0.228l0.04,0.042    l0.074,0.083l0.082,0.104l0.04,0.041l0.043,0.041l0.072,0.083l0.073,0.104l0.051,0.063l0.031,0.021l0.083,0.104l0.072,0.082    l0.052,0.063l0.02,0.021l0.084,0.104l0.072,0.082l0.062,0.063l0.01,0.021l0.083,0.104l0.073,0.083l0.063,0.082h0.01l0.072,0.104    l0.074,0.083l0.071,0.083h0.011l0.061,0.104l0.156,0.166v0.02l0.072,0.084l0.072,0.082l0.072,0.083l0.01,0.021l0.074,0.083    l0.062,0.083l0.082,0.082l0.011,0.021l0.042,0.063l0.062,0.082l0.062,0.063l0.053,0.082h0.011l0.061,0.083l0.063,0.063    l0.052,0.083l0.041,0.041l0.02,0.041l0.063,0.063l0.062,0.083l0.063,0.083l0.011,0.021l0.052,0.062l0.061,0.063l0.063,0.082    l0.04,0.063l0.021,0.021l0.053,0.062l0.061,0.083l0.301,0.373v0.02c0.85,1.076,1.656,2.153,2.442,3.229h0.04l2.982,0.394    l0.082,0.02h0.063h0.083l0.062,0.021h0.072l0.073,0.021h0.071h0.072l0.072,0.021h0.074h0.071l0,0l0.072,0.021l0,0h0.073l0,0h0.072    l0.072,0.02h0.01h0.062l0,0l0.073,0.021l0,0h0.072l0,0h0.072h0.011l0.063,0.021h0.008h0.074l0,0h0.062h0.011l0.072,0.021l0,0    h0.073l0,0h0.071l0,0l0.072,0.021h0.011h0.062l0,0h0.084l0,0l0.062,0.02h0.011h0.072l0,0h0.071h0.011l0.063,0.021h0.012h0.071l0,0    h0.071h0.012l0.063,0.02l0,0h0.082l0,0h0.063h0.01l0.072,0.021h0.01h0.064h0.008h0.063h0.011l0.072,0.021l0,0h0.071h0.011h0.063    h0.02h0.063h0.011l0.072,0.02l0,0h0.071h0.011h0.062h0.011l0.073,0.021l0,0h0.072h0.011h0.061h0.011l0.072,0.02h0.011h0.073l0,0    h0.072h0.011h0.061h0.021l0.062,0.021h0.011h0.073l0,0h0.072h0.011h0.061h0.021l0.062,0.021h0.011h0.072l0,0h0.073h0.011h0.061    h0.021l0.062,0.02h0.021h0.063h0.01h0.074h0.009h0.063h0.01h0.041l0.063,0.021h0.062l0,0h0.062h0.084h0.269h0.104l0,0l0.104,0.02    h0.114h0.372h0.136l0,0h0.143h0.146h0.154v0.021h0.156h0.165h0.353h0.186h0.373h0.195l7.836,0.041h0.34h2.825h0.839h1.149    l1.189,0.021h1.211h17.955h1.5H429.257z M264.249,246.613l-0.053-0.041l-0.051-0.041l-0.021-0.021l-0.021-0.02l0,0l-1.304-1.201    c-2.515-2.359-4.833-4.905-7.411-7.969c-2.44-2.877-5.008-5.629-7.554-8.34c-3.415-3.644-6.808-7.286-9.458-10.639l-1.304-1.656    c-7.7-9.376-15.378-15.999-23.905-23.346l-5.061-4.368c-6.138,4.905-11.643,8.113-16.858,11.155    c-9.128,5.32-17.386,10.122-26.639,23.306c-2.421,3.456-4.469,6.044-6.25,8.278c-4.097,5.196-6.654,8.425-9.644,17.76    c0.021,0.289-0.021,0.579-0.104,0.869l-1.335,4.49c-1.086,3.727-2.493,8.527-4.129,13.598c-2.308,7.68-5.629,17.676-9.883,24.3    c-1.479,2.462-2.981,4.347-4.46,5.298c-3.239,2.111-6.022,3.726-8.61,5.216l-1.634,0.952c-6.438,3.953-10.101,6.562-14.54,10.846    l-0.135,0.124l-0.165,0.165l-0.292,0.291c-3.115,3.125-6.033,6.291-8.919,9.438l-2.825,3.084l-1.067,1.139l5.217-0.084    c8.806-0.104,15.988,1.532,22.995,3.126c7.408,1.677,14.612,3.312,23.243,2.608l24.526-26.617l-3.81-13.743    c-0.248-0.724-0.165-1.552,0.302-2.235l12.345-18.109c0.403-3.623,2.297-21.257,1.2-29.639    c-1.53-11.756,31.894-25.479,31.979-25.521c1.283-0.538,2.772,0.042,3.332,1.325c0.558,1.283-0.042,2.773-1.325,3.332    c-0.083,0.041-29.96,12.48-28.955,20.201c1.314,10.1-1.263,31.418-1.263,31.479c-0.042,0.435-0.197,0.829-0.436,1.181    l-12.025,17.634l3.913,14.115c0.247,0.869,0,1.759-0.57,2.38l-21.266,23.078c5.579-1.015,11.155-2.381,16.754-3.746    c5.703-1.387,11.457-2.795,17.293-3.871l1.708-0.289c16.319-2.836,23.667-1.18,32.319,0.766c4.822,1.076,10.09,2.276,17.737,2.752    c3.021,0.166,46.755,0.104,77.417,0.042l18.939-0.021c-2.691-4.926-5.227-9.666-7.752-14.592    c-3.041-5.939-5.98-12.025-9.023-18.835l-0.042-0.124l-0.311-0.662l-0.019-0.041l-0.064-0.104l-0.228-0.477l-0.009-0.041    c-0.881-1.78-2.309-4.554-3.924-7.534l-0.04-0.083l-0.114-0.207l-0.9-1.635l-0.042-0.082l-0.124-0.229l-0.03-0.063l-0.135-0.248    l-0.021-0.041l-0.154-0.27l-0.011-0.021l-0.156-0.29h-0.008l-0.156-0.289l-0.021-0.041l-0.133-0.229l-0.043-0.082L308.602,283    l-0.051-0.104l-0.113-0.187l-0.062-0.124l-0.104-0.166l-0.073-0.145l-0.083-0.145l-0.093-0.166l-0.072-0.125l-0.104-0.186    l-0.053-0.083l-0.123-0.207l-0.042-0.083l-0.135-0.228l-0.03-0.062l-0.146-0.248l-0.021-0.021l-0.154-0.289l0,0l-0.157-0.27    l-0.021-0.021l-0.145-0.248l-0.031-0.041l-0.134-0.248l-0.042-0.063l-0.372-0.641l-0.063-0.104l-0.041-0.063l-0.063-0.083    l-0.041-0.104l-0.053-0.063l-0.051-0.104l-0.042-0.062l-0.062-0.104l-0.042-0.063l-0.062-0.104l-0.031-0.062l-0.062-0.104    l-0.031-0.041l-0.072-0.124l-0.031-0.042l-0.062-0.123l-0.031-0.042l-0.072-0.124l-0.021-0.021l-0.082-0.123l-0.011-0.021    l-0.082-0.145l-0.011-0.021l-0.083-0.146h-0.01l-0.085-0.145h-0.009l-0.084-0.145l0,0l-0.093-0.145l-0.011-0.021l-0.082-0.124    v-0.021l-0.083-0.125l-0.021-0.02l-0.072-0.125l-0.011-0.02l-0.072-0.125l-0.021-0.021l-0.072-0.104l-0.021-0.042l-0.229-0.352    l-0.031-0.062l-0.29-0.456l-0.051-0.062l-0.021-0.063l-0.052-0.062l-0.031-0.042l-0.228-0.353l-0.062-0.082l-0.146-0.228h-0.011    l-0.455-0.662c-0.26-0.208-0.467-0.476-0.61-0.786c-0.165-0.187-0.3-0.312-0.393-0.353l-0.167-0.104l-0.083-0.062l-0.104-0.042    l-0.01-0.021l-0.072-0.041l-0.093-0.042l-0.094-0.062l-0.082-0.042l-0.021-0.021l-0.082-0.041l-0.082-0.041l-0.095-0.063    l-0.094-0.041l-0.009-0.021l-0.073-0.021l-0.093-0.061l-0.094-0.063l-0.082-0.041l-0.021-0.021l-0.071-0.041l-0.083-0.041    l-0.093-0.063l-0.084-0.041l-0.03-0.021l-0.063-0.021l-0.093-0.062l-0.082-0.042l-0.083-0.062l-0.042-0.021l-0.051-0.021    l-0.093-0.062l-0.083-0.042l-0.084-0.062l-0.051-0.021l-0.042-0.021l-0.093-0.062l-0.518-0.311l-0.083-0.041l0,0l-0.082-0.063    l-0.083-0.041l-2.256-1.387c-0.994-0.602-2.008-1.242-3.043-1.926l-0.041-0.021l-2.628-1.718l-0.125-0.083l0,0l-0.165-0.104    l-0.021-0.021l-0.167-0.104l-0.02-0.021l-0.166-0.104l-0.021-0.021l-0.154-0.104l-0.032-0.021l-0.154-0.104l-0.031-0.02    l-0.144-0.104l-0.032-0.021l-0.156-0.082l-0.029-0.021l-0.332-0.228l-0.031-0.021l-0.558-0.373l-0.146-0.104l-0.04-0.021    l-0.135-0.104l-0.051-0.021l-0.136-0.104l-0.042-0.021l-0.507-0.353l-0.041-0.02l-0.331-0.229l-0.042-0.021l-0.33-0.228    l-0.042-0.021l-2.173-1.489l-0.021-0.021l-3.096-2.133l-0.03-0.02l-0.331-0.229l-0.042-0.02l-0.506-0.353l-0.053-0.042    l-0.849-0.579l-0.062-0.041l-0.125-0.083l-0.247-0.187l-0.104-0.062l-0.083-0.063l-1.191-0.808l-5.825-4.015l-0.911-0.642l0,0    l-0.289-0.207h-0.021l-0.04-0.042l-0.063-0.041l-0.04-0.041h-0.021l-0.063-0.063l-0.062-0.041l0,0l-0.352-0.248l-0.063-0.043    l-0.032-0.02l-0.029-0.041c-1.149-0.828-2.226-1.678-3.25-2.525l-0.021-0.021l-0.04-0.041l-0.063-0.041h-0.01l-0.041-0.042    l-0.053-0.041l-0.04-0.021L265.842,248l-0.042-0.041l-0.062-0.041l0,0l-0.042-0.063l-0.062-0.041l-0.021-0.021l-0.021-0.02    l-0.062-0.043l-0.042-0.041l0,0l-0.062-0.041l-0.042-0.041l-0.02-0.021l-0.042-0.02l-0.042-0.042l-0.104-0.104l-0.051-0.042    l-0.021-0.02l-0.032-0.021l-0.051-0.041l-0.042-0.041h-0.011l-0.04-0.042l-0.063-0.041l-0.009-0.021l-0.031-0.021l-0.053-0.041    l-0.04-0.041h-0.011l-0.042-0.042l-0.051-0.041l-0.021-0.021l-0.031-0.021l-0.145-0.145l-0.042-0.041l-0.031-0.021l-0.02-0.02    l-0.053-0.042L264.249,246.613L264.249,246.613z M435.053,189.221c-4.502-4.492-10.711-7.286-17.582-7.286    c-5.65,0-10.865,1.884-15.026,5.03c-3.922,2.98-6.943,7.119-8.548,11.879l0.891,1.077l1.137,1.448l0.249,0.29l0.124,0.165    l0.104,0.125l0.019,0.021l0.104,0.146l0.021,0.02l0.104,0.146h0.021l0.249,0.311l0,0l0.122,0.165l0,0l0.125,0.145l0,0l0.135,0.166    l0,0l0.125,0.145l0.009,0.021l0.124,0.145l0,0l0.125,0.145l0.021,0.021l0.113,0.145l0.012,0.021l0.122,0.123l0.021,0.021    l0.115,0.145l0.01,0.021l0.248,0.29l0.031,0.041l0.114,0.125l0.021,0.021l0.248,0.29l0.031,0.041l0.238,0.27l0.041,0.041    l0.104,0.124l0.042,0.042l0.093,0.104l0.051,0.062l0.084,0.104l0.051,0.062l0.094,0.104l0.042,0.063l0.104,0.082l0.04,0.063    l0.094,0.104l0.053,0.063l0.092,0.104l0.052,0.063l0.084,0.082l0.062,0.082l0.082,0.084l0.063,0.082l0.083,0.083l0.061,0.063    l0.083,0.104l0.063,0.062l0.082,0.083l0.062,0.083l0.083,0.083l0.073,0.082l0.071,0.083l0.072,0.083l0.074,0.063l0.082,0.103    l0.062,0.063l0.082,0.083l0.063,0.083l0.083,0.082l0.061,0.084l0.083,0.082l0.063,0.063l0.093,0.104l0.051,0.063l0.104,0.103    l0.146,0.166l0.062,0.062l0.082,0.104l0.063,0.041l0.093,0.125l0.051,0.041l0.104,0.104l0.043,0.063l0.104,0.104l0.051,0.063    l0.095,0.104l0.062,0.061l0.093,0.104l0.051,0.042l0.104,0.124l0.042,0.041l0.114,0.125l0.031,0.041l0.123,0.124l0.031,0.042    l0.114,0.124l0.042,0.021l0.112,0.146l0.032,0.021l0.124,0.145l0.032,0.021l0.112,0.145l0.042,0.021l0.124,0.124l0.021,0.041    l0.123,0.125l0.477,0.518l0.145,0.145l0.01,0.021l0.136,0.145l0.021,0.021l0.145,0.146l2.11,2.256l0,0l0.125,0.146l0,0    l0.124,0.123l0,0l0.248,0.27l0,0l0.124,0.124v0.021l0.125,0.125l0,0l0.125,0.123l0.122,0.146l0,0l0.125,0.123l0.125,0.145l0,0    l0.124,0.125l0.123,0.145l0,0l0.124,0.124l0.114,0.146h0.011l0.114,0.124l0.124,0.124l0.114,0.145l0.123,0.125l0.125,0.145l0,0    l0.124,0.125l0.125,0.145l0.112,0.123l0.124,0.146l0.114,0.124l0.125,0.145l0.114,0.125h0.01l0.114,0.123l0,0l0.112,0.146    l0.125,0.124l0.124,0.145l0.114,0.125l0.114,0.124l0.123,0.145l0.104,0.124l0.124,0.146l0.125,0.124l0.104,0.145l0.124,0.125    l0.104,0.124l0.123,0.145l0.114,0.124l0.114,0.145l0.114,0.125l0.113,0.124l0.114,0.146l0.114,0.123l0.104,0.146l0.104,0.104    l0.02,0.021l0.063,0.082l0.051,0.063l0.043,0.041l0.071,0.084l0.021,0.02l0.082,0.104l0.011,0.021l0.083,0.104l0.031,0.021    l0.062,0.083l0.053,0.063l0.031,0.041l0.082,0.082l0.02,0.021l0.084,0.104h0.011l0.072,0.104l0.04,0.041l0.053,0.063l0.062,0.062    l0.031,0.042l0.083,0.082v0.021l0.082,0.082l0.021,0.021l0.082,0.082l0.032,0.063l0.053,0.041l0.062,0.083l0.021,0.021    l0.083,0.104l0,0l0.093,0.104l0.031,0.021l0.062,0.062l0.042,0.062l0.04,0.042l0.072,0.083l0.011,0.021l0.093,0.104h0.011    l0.073,0.104l0.03,0.021l0.063,0.063l0.051,0.063l0.031,0.041l0.072,0.082l0.01,0.021l0.083,0.082l0.021,0.021l0.072,0.082    l0.032,0.042l0.052,0.041l0.062,0.083l0.021,0.021l0.093,0.104l0,0l0.083,0.083l0.021,0.021l0.062,0.083l0.042,0.041l0.041,0.041    l0.073,0.084l0.009,0.02l0.095,0.084h0.009l0.073,0.104l0.03,0.02l0.104,0.125l0.031,0.041l0.083,0.063l0.011,0.021l0.082,0.083    l0.021,0.021l0.063,0.083l0.041,0.041l0.042,0.041l0.062,0.063l0.021,0.021l0.083,0.104l0.082,0.083l0.031,0.021l0.051,0.063    l0.053,0.062l0.032,0.041l0.082,0.063l0.011,0.021l0.082,0.082l0.011,0.021l0.072,0.062l0.031,0.042l0.051,0.061l0.053,0.043    l0.041,0.041l0.073,0.082h0.011l0.082,0.084l0.02,0.02l0.063,0.084l0.04,0.041l0.042,0.041l0.062,0.063l0.021,0.021l0.082,0.083    l0,0l0.084,0.082l0.03,0.021l0.053,0.062l0.062,0.062l0.021,0.021l0.083,0.082l0,0l0.063,0.063l0.041,0.041l0.031,0.042    l0.144,0.124l0.053,0.041l0.021,0.041l0.062,0.063l0.021,0.021l0.062,0.041l0.042,0.063l0.021,0.02l0.072,0.063l0.01,0.021    l0.062,0.062l0.063,0.042l0.009,0.021l0.196,0.187l0.021,0.021l0.073,0.062l0.02,0.021l0.053,0.062l0.062,0.041l0.011,0.021    l0.207,0.187c0.538,0.518,1.086,1.014,1.646,1.51l0.021,0.021l0.061,0.041l0.29,0.248l0.021,0.021l0.443,0.393l0.021,0.021    l0.073,0.062l0.02,0.021l0.063,0.041l0.062,0.042l0.021,0.021l0.476,0.394l0.082,0.083l0,0c5.311-1.305,9.946-4.305,13.311-8.383    c3.518-4.284,5.629-9.789,5.629-15.792C442.328,199.941,439.554,193.711,435.053,189.221z M389.901,201.99l-0.765-0.91    l-0.084-0.104l-0.03-0.042l-0.021-0.021c-7.079-8.237-14.198-14.364-22.033-21.133l-5.051-4.366    c-6.146,4.926-11.641,8.134-16.867,11.177c-9.127,5.299-17.387,10.121-26.627,23.284c-2.433,3.478-4.482,6.064-6.251,8.3    c-4.097,5.195-6.654,8.424-9.654,17.758c0.019,0.29-0.021,0.559-0.104,0.849l-1.306,4.43c-1.116,3.788-2.565,8.755-4.241,13.97    l-0.053,0.166l-0.011,0.041c-0.632,2.07-1.325,4.306-2.09,6.582l3.953,2.505c1.345,0.827,2.618,1.614,3.829,2.317l0.083,0.042    l0.082,0.042l0.072,0.062l0.031,0.021l0.053,0.021l0.072,0.041l0.082,0.041l0.083,0.063h0.021    c2.028-5.588,3.933-7.989,6.769-11.59c1.2-1.512,2.587-3.271,4.274-5.672c7.068-10.101,13.297-13.723,20.189-17.737    c3.851-2.235,7.947-4.616,12.491-8.425c0.972-0.827,2.37-0.785,3.3,0.042l4.668,4.057c6.179,5.319,11.736,10.101,17.418,17.034    l1.023,1.283c1.77,2.256,4.088,4.719,6.406,7.182l0.135,0.166c1.894,2.027,3.809,4.077,5.351,5.898    c1.729,2.049,3.269,3.746,4.904,5.277c1.614,1.512,3.364,2.939,5.558,4.471l4.998,3.437c5.299,3.685,10.846,7.513,16.061,10.452    c1.202,0.683,3.074,3.373,4.979,6.581c2.66,4.513,5.703,10.39,6.51,12.191c1.158,2.587,2.411,5.257,3.746,8.03l0.062,0.124    c1.046,2.132,2.05,4.118,3.021,6.022l31.212-0.041l19.849-0.021c-2.69-4.945-5.236-9.665-7.762-14.591    c-3.043-5.961-5.981-12.024-8.982-18.772l-0.104-0.186c-1.076-2.443-5.215-10.391-8.9-16.621c-2.214-3.746-4.14-6.747-4.761-7.099    c-7.697-4.347-15.646-9.852-23.241-15.108l-7.068-4.865c-1.418-0.992-2.722-1.945-3.942-2.918h-0.021l-0.031-0.021l-0.051-0.042    l-0.021-0.02l-0.082-0.063l-0.043-0.041l-0.061-0.042l-0.072-0.062l-0.031-0.021l-0.104-0.082l0,0l-0.207-0.166l-0.061-0.063    l-0.043-0.02l-0.082-0.084h-0.021l-0.104-0.082l-0.01-0.021l-0.083-0.061l-0.053-0.043l-0.051-0.041l-0.072-0.063l-0.021-0.02    l-0.104-0.084l0,0l-0.104-0.082l-0.021-0.041l-0.082-0.041l-0.053-0.063l-0.237-0.187l-0.021-0.021l-0.083-0.063l-0.042-0.041    l-0.051-0.042l-0.073-0.082l-0.03-0.021l-0.218-0.186l-0.071-0.063l-0.053-0.042l-0.041-0.041l-0.084-0.063l-0.114-0.104    l-0.009-0.02l-0.084-0.063l-0.165-0.145l-0.031-0.021l-0.093-0.082l0,0l-0.104-0.084l-0.02-0.041l-0.063-0.041l-0.062-0.063    l-0.042-0.041l-0.093-0.082l-0.093-0.084h-0.011l-0.083-0.082l-0.031-0.042l-0.125-0.104l-0.029-0.021l-0.093-0.082l0,0    l-0.093-0.104l-0.032-0.021l-0.062-0.062l-0.053-0.042l-0.042-0.041l-0.071-0.063l-0.021-0.021l-0.093-0.083l-0.011-0.02    l-0.082-0.084l-0.041-0.02l-0.053-0.063l-0.051-0.063l-0.124-0.104h-0.011l-0.093-0.104h-0.021l-0.072-0.082l-0.031-0.042    l-0.062-0.042l-0.063-0.062l-0.019-0.021l-0.104-0.104l-0.085-0.083l-0.019-0.021l-0.074-0.063l-0.051-0.062l-0.042-0.042    l-0.072-0.062l-0.021-0.021l-0.094-0.082v-0.021l-0.082-0.083l-0.042-0.021l-0.051-0.063l-0.053-0.063l-0.04-0.021l-0.083-0.083    v-0.021l-0.104-0.083l-0.011-0.02l-0.073-0.063l-0.04-0.041l-0.043-0.063l-0.071-0.063l-0.032-0.021l-0.175-0.186l-0.021-0.021    l-0.072-0.083l-0.042-0.041l-0.04-0.041l-0.073-0.063l-0.02-0.041l-0.093-0.083l0,0l-0.085-0.104l-0.029-0.021l-0.156-0.166    L413.827,229v-0.02l-0.093-0.104h-0.011l-0.082-0.084l-0.042-0.041l-0.041-0.063l-0.063-0.062l-0.03-0.021l-0.082-0.104h-0.011    l-0.084-0.083l-0.02-0.042l-0.074-0.062l-0.04-0.042l-0.042-0.062l-0.072-0.062l-0.021-0.021l-0.083-0.104h-0.01l-0.094-0.104    l-0.021-0.021l-0.062-0.063l-0.063-0.062l-0.02-0.041l-0.084-0.083l-0.009-0.021l-0.095-0.104h-0.02l-0.063-0.083l-0.041-0.042    l-0.052-0.063l-0.072-0.061l-0.021-0.043l-0.082-0.104l-0.093-0.082l-0.032-0.041l-0.062-0.063l-0.053-0.063l-0.029-0.041    l-0.084-0.082l-0.02-0.021l-0.084-0.104h-0.009l-0.074-0.104l-0.04-0.021l-0.063-0.062l-0.051-0.083l-0.031-0.021l-0.083-0.104    h-0.011l-0.093-0.104l-0.021-0.021l-0.062-0.082l-0.053-0.063l-0.04-0.041l-0.074-0.083l-0.02-0.021l-0.093-0.104v-0.021    l-0.095-0.082l-0.02-0.041l-0.063-0.084l-0.062-0.062l-0.042-0.021l-0.072-0.104l-0.011-0.021l-0.093-0.104l-0.011-0.021    l-0.082-0.083l-0.042-0.042l-0.052-0.062l-0.071-0.083l-0.021-0.021l-0.082-0.104h-0.011l-0.093-0.124l-0.021-0.021l-0.063-0.082    l-0.062-0.063l-0.043-0.041l-0.082-0.104l0,0l-0.104-0.125h-0.011l-0.071-0.104l-0.041-0.041l-0.063-0.063l-0.061-0.082    l-0.021-0.041l-0.104-0.104c-2.339-2.754-4.946-5.547-7.544-8.32l-2.018-2.174l-0.042-0.041l-0.579-0.643l-0.053-0.041    l-0.258-0.289l-0.053-0.041l-0.104-0.125l-0.051-0.041l-0.104-0.125l-0.062-0.062l-0.393-0.435l-0.064-0.063l-0.092-0.104    l-0.063-0.063l-0.092-0.104l-0.064-0.061l-0.082-0.104l-0.061-0.063l-0.085-0.104l-0.083-0.063l-0.071-0.104l-0.072-0.082    l-0.228-0.249l-0.083-0.083l-0.063-0.083l-0.082-0.082l-0.062-0.083l-0.082-0.083l-0.074-0.083l-0.082-0.082l-0.062-0.084    l-0.156-0.164l-0.082-0.084l-0.063-0.063l-0.082-0.104l-0.063-0.061l-0.083-0.104l-0.062-0.063l-0.084-0.104l-0.062-0.063    l-0.083-0.104l-0.061-0.062l-0.084-0.104l-0.051-0.063l-0.094-0.104l-0.053-0.062l-0.093-0.104l-0.04-0.063l-0.104-0.104    l-0.043-0.063l-0.104-0.104l-0.04-0.041l-0.104-0.124l-0.042-0.042l-0.104-0.123l-0.031-0.042l-0.104-0.124l-0.03-0.041    l-0.114-0.125l-0.031-0.041l-0.104-0.124l-0.031-0.042l-0.113-0.124l-0.021-0.021l-0.114-0.145l-0.021-0.021l-0.113-0.145    l-0.021-0.021l-0.123-0.145l-0.01-0.02l-0.114-0.146l-0.021-0.02l-0.115-0.145h-0.021l-0.112-0.146l-0.021-0.021l-0.113-0.145    l-0.011-0.021l-0.124-0.145v-0.021l-0.125-0.146h-0.011l-0.112-0.165h-0.021l-0.113-0.165h-0.011l-0.125-0.146v-0.021    l-0.122-0.145l-1.307-1.636l-0.826-0.993l-0.042-0.063l-0.042-0.063L389.901,201.99z M70.304,187.771h10.774    c0.372-0.993,0.951-1.863,1.676-2.588c1.304-1.303,3.125-2.131,5.113-2.131h34.388c1.976,0,3.797,0.828,5.101,2.131l0.084,0.084    c1.272,1.324,2.059,3.084,2.059,5.029c0,0.724-0.114,1.387-0.3,2.049h12.357c1.965,0,3.787,0.807,5.09,2.111l0.053,0.062    c1.293,1.304,2.09,3.104,2.09,5.05c0,2.008-0.817,3.83-2.121,5.133c-1.304,1.305-3.125,2.133-5.112,2.133h-34.4    c-1.944,0-3.726-0.808-5.04-2.07c-0.714-0.703-1.293-1.553-1.665-2.504H86.086c-0.269,1.469-0.993,2.793-2.008,3.809    c-1.304,1.304-3.125,2.131-5.111,2.131h-34.39c-1.986,0-3.797-0.827-5.101-2.131l-0.083-0.084c-1.274-1.324-2.06-3.084-2.06-5.029    c0-2.008,0.818-3.828,2.122-5.133c1.314-1.304,3.125-2.131,5.122-2.131h18.607c0.269-1.449,0.982-2.773,1.997-3.788    C66.496,188.578,68.307,187.771,70.304,187.771z M265.718,141.678h10.772c0.374-0.992,0.942-1.861,1.667-2.587    c1.304-1.304,3.125-2.132,5.122-2.132h34.39c1.976,0,3.786,0.828,5.101,2.132l0.072,0.083c1.285,1.325,2.07,3.084,2.07,5.029    c0,0.725-0.113,1.387-0.3,2.049h12.345c1.978,0,3.789,0.808,5.104,2.111l0.051,0.063c1.284,1.304,2.092,3.104,2.092,5.051    c0,2.007-0.818,3.828-2.133,5.133c-1.304,1.304-3.125,2.131-5.113,2.131h-34.388c-1.957,0-3.736-0.786-5.04-2.069    c-0.725-0.704-1.304-1.552-1.676-2.505H281.5c-0.271,1.471-0.993,2.795-2.008,3.809c-1.314,1.305-3.125,2.133-5.124,2.133h-34.377    c-1.986,0-3.799-0.828-5.113-2.133l-0.072-0.082c-1.272-1.325-2.058-3.084-2.058-5.029c0-2.008,0.807-3.83,2.121-5.134    c1.314-1.304,3.125-2.132,5.122-2.132h18.607c0.269-1.449,0.982-2.773,1.997-3.787C261.91,142.486,263.71,141.678,265.718,141.678    z M279.896,251.892l1.365,0.952l0.083,0.041l0.063,0.042l0.071,0.062l0.062,0.042l0.074,0.062l0.062,0.021l0.082,0.063    l0.063,0.042l0.082,0.062l0.051,0.042l0.083,0.041l0.053,0.041l0.082,0.063l0.062,0.041l0.084,0.063l0.051,0.041l0.094,0.063    l0.042,0.02l0.093,0.063l0.051,0.041l0.084,0.063l0.051,0.021l0.094,0.062l0.042,0.042l0.104,0.062l0.04,0.042l0.093,0.062    l0.042,0.021l0.239,0.166l0.04,0.041l0.093,0.063l0.042,0.021l0.104,0.083l0.03,0.021l0.104,0.063l0.042,0.021l0.104,0.083    l0.042,0.021l0.104,0.082l0.041,0.021l0.093,0.063l0.031,0.02l0.104,0.084l0.042,0.02l0.103,0.084l0.042,0.02l0.104,0.063    l0.042,0.021l0.093,0.082l0.03,0.021l0.113,0.082l0.032,0.021l0.104,0.061l0.042,0.021l0.104,0.082l0.029,0.021l0.114,0.082    l0.032,0.021l0.104,0.063l0.029,0.02l0.114,0.084l0.031,0.021l0.104,0.083l0.042,0.02l0.104,0.063l0.03,0.021l0.114,0.083    l0.031,0.021l0.104,0.083l0.03,0.021l0.104,0.062l0.042,0.021l0.104,0.082l0.042,0.021l0.104,0.082l0.03,0.021l0.113,0.063    l0.032,0.02l0.104,0.084l0.031,0.02l0.144,0.104l0.104,0.063l0.043,0.041l0.104,0.063l0.04,0.021l0.104,0.082l0.031,0.021    l0.114,0.062l0.03,0.041l0.104,0.063l0.042,0.021l0.104,0.083l0.031,0.021l0.104,0.063l0.04,0.041l0.104,0.063l0.043,0.021    l0.104,0.083l0.04,0.021l0.104,0.062l0.042,0.042l0.093,0.062l0.042,0.021l0.094,0.082l0.051,0.021l0.093,0.063l0.053,0.041    l0.093,0.063l0.051,0.02l0.093,0.084l0.043,0.02l0.093,0.063l0.146,0.104l0.051,0.041l0.229,0.145l0.062,0.042l0.146,0.083    l0.082,0.063l0.062,0.041l0.073,0.062l0.072,0.042c0.579-1.697,1.139-3.395,1.676-5.071l0.053-0.165l0,0    c0.507-1.677,0.962-3.229,1.365-4.615l3.529-12.129l-5.154-3.437l-5.173-3.519c-3.396,2.961-6.686,5.672-10.028,8.445    l-1.293,1.055c-1.45,1.222-2.805,2.401-4.058,3.54l-1.531,1.428l0.082,0.062l0.125,0.104l0.113,0.104l0.125,0.104l0.123,0.104    l0.124,0.084l0.136,0.103l0.114,0.104l1.024,0.786h0.011l0.258,0.207h0.011l0.672,0.498l0.031,0.02l0.051,0.042l0.063,0.041l0,0    l0.062,0.042l0.403,0.311l0.053,0.041h0.04l0.021,0.041l0.062,0.041l0.053,0.021l0.01,0.021l0.062,0.042l0.114,0.082l0.062,0.041    l0.031,0.021l0.032,0.021l0.062,0.042l0.053,0.041h0.01l0.062,0.041l0.051,0.041l0.032,0.021l0.042,0.02l0.051,0.063l0.042,0.021    l0.031,0.02l0.062,0.043l0.062,0.041L279.896,251.892z M414.924,154.76c0-1.408,1.14-2.547,2.547-2.547s2.546,1.139,2.546,2.547    v11.982c0,1.408-1.139,2.547-2.546,2.547s-2.547-1.139-2.547-2.547V154.76z M461.266,178.582c1.211-0.704,2.774-0.29,3.467,0.932    c0.704,1.2,0.29,2.752-0.921,3.455l-10.379,6.003c-1.211,0.704-2.764,0.29-3.468-0.932c-0.693-1.2-0.279-2.772,0.932-3.456    L461.266,178.582z M463.812,230.636c1.211,0.683,1.625,2.255,0.921,3.456c-0.692,1.2-2.256,1.635-3.467,0.932l-10.369-6.002    c-1.211-0.704-1.625-2.256-0.932-3.457c0.704-1.221,2.257-1.635,3.468-0.932L463.812,230.636z M438.032,166.122    c0.693-1.222,2.246-1.636,3.457-0.932c1.211,0.684,1.625,2.235,0.942,3.456l-3.664,6.334c-0.693,1.2-2.246,1.614-3.457,0.932    c-1.21-0.704-1.625-2.256-0.93-3.457L438.032,166.122z M462.983,204.246c1.407,0,2.546,1.16,2.546,2.546    c0,1.407-1.139,2.546-2.546,2.546h-7.305c-1.407,0-2.547-1.139-2.547-2.546c0-1.386,1.14-2.546,2.547-2.546H462.983z     M392.509,168.646c-0.692-1.2-0.278-2.772,0.933-3.456c1.21-0.704,2.773-0.29,3.467,0.911l3.652,6.334    c0.705,1.221,0.291,2.772-0.92,3.477c-1.211,0.703-2.764,0.289-3.468-0.932L392.509,168.646z M339.482,345.629    c-1.396,0-2.545-1.138-2.545-2.545s1.148-2.546,2.545-2.546h42.668c1.396,0,2.536,1.139,2.536,2.546s-1.14,2.545-2.536,2.545    H339.482z M300.944,369.97c1.396,0,2.535,1.138,2.535,2.524c0,1.408-1.139,2.547-2.535,2.547H193.308    c-1.397,0-2.546-1.139-2.546-2.547c0-1.387,1.149-2.524,2.546-2.524H300.944z M258.929,356.041c-1.407,0-2.546-1.139-2.546-2.547    c0-1.407,1.139-2.545,2.546-2.545h62.849c1.396,0,2.546,1.138,2.546,2.545c0,1.408-1.149,2.547-2.546,2.547H258.929z     M167.385,350.949c1.407,0,2.546,1.138,2.546,2.545c0,1.408-1.139,2.547-2.546,2.547H90.96c-1.397,0-2.536-1.139-2.536-2.547    c0-1.407,1.139-2.545,2.536-2.545H167.385z M430.221,340.807c-1.397,0-2.547-1.138-2.547-2.545c0-1.408,1.149-2.546,2.547-2.546    h42.666c1.397,0,2.536,1.138,2.536,2.546c0,1.407-1.139,2.545-2.536,2.545H430.221z M53.281,327.644    c-0.579,0.683-1.221,1.429-1.904,2.194l0.455-0.021c6.914-0.207,13.785-0.414,20.864-0.393c2.607,0,4.471,0.104,5.94,0.207    c2.276,0.145,3.425,0.207,4.822-0.662l0.539-0.497c1.045-0.932,2.669-2.38,4.801-4.739c5.661-6.23,9.396-10.246,12.812-13.434    l0.095-0.082l0.123-0.125c5.154-4.822,9.346-7.451,13.982-10.162c2.494-1.531,5.382-3.25,8.869-5.318l0.404-0.229    c1.676-1.014,3.29-3.042,4.801-5.65h0.011l0.021-0.041c2.825-5.258,5.743-13.453,8.228-21.215    c0.537-1.779,1.014-3.436,1.447-4.885l3.489-12.025l-5.143-3.436l-5.196-3.498c-3.333,2.898-6.583,5.589-9.873,8.32l-1.449,1.18    c-3.973,3.332-7.016,6.209-9.779,9.211c-2.783,3.043-5.371,6.334-8.455,10.452c-3.902,5.195-7.389,9.458-11.072,13.536    l-0.146,0.145c-3.705,4.098-7.618,8.01-12.376,12.48c-7.275,6.852-13.164,13.64-19.104,20.47    C58.124,322.158,55.745,324.891,53.281,327.644z" style="fill-rule:evenodd;clip-rule:evenodd;"/></g></g><g id="Layer_1"/></svg>