<?xml version="1.0" ?><!DOCTYPE svg  PUBLIC '-//W3C//DTD SVG 1.1//EN'  'http://www.w3.org/Graphics/SVG/1.1/DTD/svg11.dtd'><svg height="80px" id="Layer_1" style="enable-background:new 0 0 80 80;" version="1.1" viewBox="0 0 80 80" width="80px" xml:space="preserve" xmlns="http://www.w3.org/2000/svg" xmlns:xlink="http://www.w3.org/1999/xlink"><style type="text/css">
	.st0{fill:#1C2B36;}
</style><g><path class="st0" d="M20.7,41c-0.8,4.2-2.8,15.5-1.8,20c0.9,4.2,4.8,5.9,7.1,6.7c2.9,1,6.3,2,14.1,2l0,0c7.8,0,11.2-1,14.1-2   c2.3-0.8,6.2-2.6,7.1-6.7c1-4.5-1-15.8-1.8-20H20.7z M21,60.4c0,0-0.1,0-0.1,0c-0.4,0-0.8-0.3-0.9-0.8c-0.1-0.5,0.3-0.9,0.8-1   c0.5-0.1,0.9,0.3,1,0.8C21.9,59.9,21.5,60.3,21,60.4z M20.9,54.7C20.9,54.7,20.9,54.7,20.9,54.7c-0.6,0-0.9-0.5-0.9-1   c0-0.5,0.5-0.9,1-0.8c0.5,0,0.9,0.5,0.8,1c0,0,0,0,0,0C21.8,54.4,21.4,54.7,20.9,54.7z M22.5,48.3c-0.1,0.4-0.4,0.8-0.9,0.8   c0,0-0.1,0-0.1,0c-0.5-0.1-0.8-0.5-0.8-1c0.1-0.5,0.5-0.8,1-0.8C22.2,47.3,22.5,47.8,22.5,48.3z M22.4,43.4c-0.5-0.1-0.8-0.6-0.7-1   c0.1-0.5,0.6-0.8,1-0.7c0.5,0.1,0.8,0.6,0.7,1c-0.1,0.4-0.5,0.7-0.9,0.7C22.5,43.4,22.4,43.4,22.4,43.4z M24.5,64.8   c-0.2,0.2-0.4,0.4-0.7,0.4c-0.2,0-0.4-0.1-0.5-0.2c-0.4-0.3-0.5-0.9-0.2-1.3c0.3-0.4,0.9-0.5,1.3-0.2   C24.7,63.9,24.8,64.4,24.5,64.8z M29.8,66.9c-0.1,0.4-0.5,0.6-0.9,0.6c-0.1,0-0.2,0-0.3,0c-0.5-0.1-0.7-0.6-0.6-1.1   c0.1-0.5,0.6-0.7,1.1-0.6C29.7,65.9,29.9,66.4,29.8,66.9z M35.4,67.8c0,0.5-0.4,0.8-0.9,0.8c0,0-0.1,0-0.1,0   c-0.5-0.1-0.9-0.5-0.8-1c0-0.5,0.5-0.8,1-0.8C35.1,66.9,35.5,67.3,35.4,67.8z M40.8,68.6c-0.2,0.2-0.4,0.3-0.6,0.3   c-0.2,0-0.5-0.1-0.6-0.3c-0.2-0.2-0.3-0.4-0.3-0.6c0-0.2,0.1-0.5,0.3-0.6c0.3-0.3,0.9-0.3,1.3,0c0.2,0.2,0.3,0.4,0.3,0.6   C41.1,68.2,41,68.4,40.8,68.6z M44.9,64.2c0,0.4-0.3,0.7-0.7,0.7h-8.1c-0.4,0-0.7-0.3-0.7-0.7v-3.4c0-0.4,0.3-0.7,0.7-0.7h8.1   c0.4,0,0.7,0.3,0.7,0.7V64.2z M45.9,68.6C45.9,68.6,45.9,68.6,45.9,68.6c-0.5,0-0.9-0.3-1-0.8c-0.1-0.5,0.3-0.9,0.8-1   c0.5-0.1,0.9,0.3,1,0.8C46.8,68.1,46.4,68.6,45.9,68.6z M51.7,67.5c-0.1,0-0.2,0-0.3,0c-0.4,0-0.7-0.2-0.9-0.6   c-0.1-0.5,0.1-1,0.6-1.1c0.5-0.1,1,0.1,1.1,0.6C52.4,66.8,52.2,67.3,51.7,67.5z M57.1,65c-0.2,0.1-0.4,0.2-0.5,0.2   c-0.3,0-0.5-0.1-0.7-0.4c-0.3-0.4-0.2-1,0.2-1.3c0.4-0.3,1-0.2,1.3,0.2C57.6,64.1,57.5,64.6,57.1,65z M56.9,42.7   c-0.1-0.5,0.2-1,0.7-1c0.5-0.1,1,0.2,1.1,0.7c0.1,0.5-0.2,1-0.7,1c-0.1,0-0.1,0-0.2,0C57.4,43.4,57,43.1,56.9,42.7z M60.3,59.6   c-0.1,0.4-0.4,0.8-0.9,0.8c0,0-0.1,0-0.1,0c-0.5-0.1-0.8-0.5-0.8-1c0.1-0.5,0.5-0.8,1-0.8C60,58.7,60.4,59.1,60.3,59.6z M60.3,53.7   c0,0.5-0.3,0.9-0.8,1c0,0,0,0-0.1,0c-0.5,0-0.9-0.4-0.9-0.8c0-0.5,0.3-0.9,0.8-1C59.8,52.9,60.3,53.2,60.3,53.7z M58.9,49   c0,0-0.1,0-0.1,0c-0.4,0-0.8-0.3-0.9-0.8c-0.1-0.5,0.3-0.9,0.8-1c0.5-0.1,0.9,0.3,1,0.8C59.7,48.5,59.4,48.9,58.9,49z"/><path class="st0" d="M66.4,40.9c0-1.6-1.2-2.9-2.8-3c-0.7-1.7-1.7-2.7-2.8-3.6c-1-0.9-2-1.9-3-3.7c-2.8-5.1-2.4-9.5-2.1-13.1   c0.4-3.8,0.7-7.1-3.6-8.7c-6.7-2.4-9.5,2.5-12.2,7.4c-2.6,4.5-5.2,9.2-11.1,10.3c-10.8,2-12.8,8.4-13.2,11.7c-1.2,0.4-2,1.5-2,2.8   c0,1.7,1.3,3,3,3c0.1,0,0.1,0,0.2,0c-1.5,6.1-3.1,17.2,2.9,23.9c1.1,1.2,2.6,3.2,5.5,3.5c4.2,0.4,10,0.5,13.1,0.6l0,0   c0.1,0,0.5,0,1.2,0c0.6,0,1,0,1.2,0l0,0c3.2-0.1,10-0.2,14.2-0.6c2.8-0.3,4.4-2.2,5.5-3.5c6.1-6.7,4.4-17.8,2.9-23.9   c0.1,0,0.1,0,0.2,0C65,43.9,66.4,42.6,66.4,40.9z M16.6,42.8c-1,0-1.9-0.9-1.9-1.9c0-0.7,0.3-1.3,0.9-1.6c0,0.2,0,0.3,0,0.4   c0,0.5,0.5,0.9,1,0.9c0.5,0,0.9-0.5,0.9-1l0-0.1c0-0.1,0-0.2,0-0.3c0.6,0.3,1.1,1,1.1,1.7c0,0,0,0.1,0,0.1c-0.6,0.1-1.1,0.5-1.2,1   c-0.1,0.2-0.1,0.5-0.2,0.7C16.9,42.8,16.8,42.8,16.6,42.8z M62.1,61.8c-1,4.3-4.9,6.1-7.4,6.9c-3,1-6.5,2.1-14.6,2.1l0,0   c-8.1,0-11.6-1-14.6-2.1c-2.4-0.8-6.4-2.6-7.4-6.9c-1-4.4,1.4-15.8,2.4-20.8h-1c0,0,0,0,0-0.1c0-1.4-0.9-2.5-2.1-2.9   c0.3-2.8,2.2-8.1,11.6-9.8c6.7-1.2,9.7-6.5,12.3-11.2c3.1-5.4,5-8.4,10-6.6c2.9,1,2.8,2.8,2.4,6.8c-0.3,3.6-0.8,8.5,2.3,14.1   c1.2,2.1,2.4,3.2,3.4,4.2c0.9,0.8,1.6,1.5,2.2,2.7c-0.9,0.5-1.4,1.5-1.4,2.6c0,0,0,0,0,0.1h-0.7C60.7,46,63.1,57.4,62.1,61.8z    M62.7,42c-0.1-0.5-0.7-1-1.2-1c0,0,0-0.1,0-0.1c0-0.6,0.3-1.1,0.7-1.5c0,0.2,0.1,0.3,0.1,0.5c0.1,0.4,0.5,0.7,0.9,0.7   c0.1,0,0.2,0,0.2,0c0.5-0.1,0.8-0.6,0.7-1.1c0-0.1-0.1-0.2-0.1-0.3c0.7,0.3,1.2,1,1.2,1.8c0,1-0.9,1.9-1.9,1.9   c-0.2,0-0.3,0-0.5-0.1C62.9,42.5,62.8,42.2,62.7,42z"/></g></svg>