<?xml version="1.0" ?><!DOCTYPE svg  PUBLIC '-//W3C//DTD SVG 1.1//EN'  'http://www.w3.org/Graphics/SVG/1.1/DTD/svg11.dtd'><svg enable-background="new 0 0 512 512" height="512px" id="Sandal" version="1.1" viewBox="0 0 512 512" width="512px" xml:space="preserve" xmlns="http://www.w3.org/2000/svg" xmlns:xlink="http://www.w3.org/1999/xlink"><path d="M466.606,340.042H69.038c-9.048,0-16.451-7.403-16.451-16.45v-0.001c0-9.048,7.403-16.45,16.451-16.45  h397.568c9.049,0,16.451,7.402,16.451,16.45v0.001C483.058,332.639,475.655,340.042,466.606,340.042z" fill="#F2EAE2"/><path d="M437.104,289.121c-1.003-12.033-10.813-24.699-59.695-57.109c-20.653-13.693-40.893-25.892-48.609-30.486  c-3.894-3.77-9.055-5.993-14.759-6.298c-4.326-0.228-8.893,0.604-13.952,2.55c-18.223,7.008-38.147,25.911-60.916,57.786  c-15.82,22.147-26.983,42.306-27.451,43.153c-4.572,8.287-1.56,18.711,6.727,23.283c2.625,1.447,5.463,2.135,8.263,2.135  c6.039,0,11.896-3.199,15.02-8.861c0.105-0.19,10.656-19.244,25.33-39.789c10.001-14,19.625-25.411,28.108-33.459  c-1.4,3.345-3.097,7.159-5.149,11.496c-6.698,14.149-20.863,46.736-20.795,46.619h34.805c0.384-0.67,11.491-19.724,19.49-37.4  c4.604-10.175,7.949-19.007,9.989-26.322c11.35,3.851,24.498,9.211,34.943,16.045c38.24,25.02,33.03,40.142,35.093,42.786  c2.067,7.27,8.758,12.433,16.462,12.432c0.477,0,0.959-0.019,1.442-0.06C430.882,306.835,437.891,298.553,437.104,289.121z" fill="#F28F8F"/><path d="M179.138,324.131c-9.464,0-17.136-7.672-17.136-17.137c0-26.939-10.475-52.25-29.494-71.27  c-18.585-18.586-43.181-29.012-69.432-29.478c-0.075,0.029-0.148,0.06-0.216,0.09c-0.058,1.419,0.299,6.174,5.857,15.861  c8.11,14.132,41.384,56.71,63.301,77.942l-41.897-0.031c-48.972-47.442-67.935-80.88-59.678-105.227  c5.423-15.993,20.666-21.863,28.817-22.811c0.656-0.076,1.317-0.114,1.978-0.114c36.095,0,70.013,14.039,95.505,39.531  s39.531,59.41,39.531,95.505C196.274,316.459,188.602,324.131,179.138,324.131z" fill="#F28F8F"/><path d="M467.033,300.141h-25.824c1.568-3.609,2.23-7.57,1.895-11.602c-1.212-14.547-11.258-28.186-62.803-62.361  c-20.119-13.34-39.97-25.341-48.224-30.265c-5.024-4.595-11.521-7.296-18.645-7.676c-5.326-0.277-10.83,0.698-16.833,3.006  c-19.54,7.516-40.508,27.224-64.101,60.251c-16.043,22.461-27.407,42.978-27.884,43.841c-0.628,1.14-1.151,2.308-1.579,3.495  c-1.961-34.893-16.46-67.408-41.343-92.29c-26.815-26.814-62.49-41.582-100.455-41.582c-0.928,0-1.865,0.055-2.786,0.161  c-9.786,1.138-28.092,8.212-34.639,27.516c-9.04,26.656,8.362,59.962,56.339,107.506H69.464c-12.931,0-23.451,10.52-23.451,23.451  c0,12.93,10.521,23.45,23.451,23.45h397.569c12.931,0,23.451-10.521,23.451-23.451S479.964,300.141,467.033,300.141z   M307.162,209.254c1.813-3.09,5.169-5.01,8.759-5.01c1.788,0,3.556,0.483,5.111,1.396c0.175,0.103,1.023,0.602,2.413,1.427  c3.403,2.022,10.123,6.048,18.586,11.278c8.879,5.487,19.662,12.294,30.533,19.501c46.068,30.545,55.807,42.487,56.588,51.856  c0.225,2.698-0.614,5.322-2.363,7.39c-1.212,1.432-2.765,2.467-4.5,3.049c-0.77,0.258-1.57,0.436-2.4,0.505  c-0.287,0.024-0.574,0.035-0.858,0.035l-0.001,7v-7c-1.105,0-2.172-0.201-3.184-0.54c-2.481-0.833-4.587-2.592-5.803-4.938  c-0.114-1.118-0.492-2.159-1.07-3.059c0.001-0.053,0.002-0.106,0.002-0.159c0-0.395-0.035-0.807-0.102-1.195  c-0.1-0.582-0.268-1.135-0.496-1.652c-1.495-7.768-6.639-22.623-37.068-42.532c-9.07-5.934-20.043-10.814-30.453-14.651  c-4.657-1.717-9.203-3.227-13.414-4.524c-7.113-2.192-13.275-3.788-17.417-4.787C305.792,219.633,304.485,213.816,307.162,209.254z   M261.269,300.141h-3.289c2.354-3.727,5.011-7.82,7.907-12.102c-0.644,1.468-1.231,2.813-1.748,3.996l-1.694,3.89  C261.952,297.059,261.323,298.516,261.269,300.141z M396.913,300.141h-85.794c4.014-7.084,11.734-21.105,17.802-34.516  c3.352-7.405,6.059-14.146,8.121-20.173c9.233,3.452,18.774,7.747,26.603,12.868c28.75,18.811,30.605,30.842,31.305,35.372  c0.21,1.366,0.441,2.866,1.148,4.327C396.334,298.746,396.612,299.449,396.913,300.141z M216.873,302.099  c0.077-0.14,0.458-0.827,1.101-1.958c3.185-5.604,12.958-22.365,25.917-40.508c18.039-25.254,34.007-41.968,48.505-50.731  c-2.33,10.018,1.964,20.826,11.284,26.296c0.921,0.541,1.584,0.7,2.684,0.964c4.026,0.964,10.253,2.565,17.426,4.784  c-1.91,5.579-4.45,11.895-7.624,18.908c-5.815,12.854-13.449,26.701-17.174,33.287h-20.058c4.67-10.655,12.095-27.453,16.437-36.624  c1.976-4.175,3.752-8.141,5.279-11.787c1.278-3.053,0.243-6.584-2.48-8.465c-2.725-1.881-6.394-1.596-8.794,0.683  c-8.86,8.405-18.884,20.324-28.987,34.469c-7.718,10.804-14.298,21.18-18.879,28.725c-4.294,7.072-6.833,11.659-6.884,11.752  c-0.462,0.837-1.037,1.588-1.694,2.248c-1.878,1.887-4.456,2.994-7.197,2.994c-1.718,0-3.36-0.426-4.881-1.264  c-0.862-0.477-1.623-1.064-2.285-1.73C215.475,311.027,214.649,306.129,216.873,302.099z M37.072,197.131  c5.386-15.883,22.28-18.021,22.996-18.105c0.386-0.044,0.78-0.067,1.17-0.067c34.226,0,66.385,13.312,90.556,37.481  c22.549,22.549,35.642,52.053,37.297,83.701c0.119,2.273,0.184,4.559,0.184,6.854c0,2.786-1.13,5.313-2.955,7.146  c-1.837,1.846-4.378,2.99-7.182,2.99s-5.344-1.145-7.181-2.99c-1.825-1.834-2.955-4.36-2.955-7.146c0-2.297-0.079-4.582-0.221-6.854  c-1.632-26.229-12.604-50.647-31.323-69.366c-19.833-19.833-46.205-31.028-74.258-31.526c-0.042,0-0.083-0.001-0.125-0.001  c-0.86,0-1.714,0.159-2.519,0.469c-0.184,0.071-0.363,0.146-0.531,0.221c-2.438,1.08-4.052,3.452-4.159,6.116  c-0.136,3.329,0.932,9.437,6.78,19.63c6.944,12.101,31.693,44.398,52.86,67.446l-22.54-0.018  C48.28,249.421,29.992,218.009,37.072,197.131z M154.756,300.141H139c0-1.859-0.723-3.684-2.111-5.028  c-21.2-20.536-54.206-62.642-62.101-76.398c-1.057-1.843-1.888-3.453-2.541-4.848c20.896,2.431,40.266,11.763,55.311,26.808  C143.633,256.748,153.146,277.654,154.756,300.141z M467.033,333.042H69.464c-5.211,0-9.451-4.239-9.451-9.451  c0-5.211,4.24-9.45,9.451-9.45h86.618c3.053,9.831,12.234,16.99,23.056,16.99c10.822,0,20.003-7.159,23.057-16.99  c0.093-0.299,0.176-0.603,0.258-0.906c0.082,0.304,0.168,0.605,0.262,0.906c1.784,5.754,5.698,10.855,11.376,13.988  c3.566,1.967,7.592,3.006,11.644,3.006c8.798,0,16.902-4.782,21.149-12.479c0.03-0.055,0.946-1.706,2.585-4.515h164.596  c1.613,0.343,3.272,0.54,4.966,0.54h0.002c0.68,0,1.362-0.028,2.023-0.084c1.037-0.087,2.056-0.243,3.058-0.456h42.921  c5.211,0,9.451,4.239,9.451,9.451C476.484,328.803,472.244,333.042,467.033,333.042z" fill="#5A5954"/></svg>