<?xml version="1.0" ?><!DOCTYPE svg  PUBLIC '-//W3C//DTD SVG 1.1//EN'  'http://www.w3.org/Graphics/SVG/1.1/DTD/svg11.dtd'><svg enable-background="new 0 0 24 24" version="1.1" viewBox="0 0 24 24" xml:space="preserve" xmlns="http://www.w3.org/2000/svg" xmlns:xlink="http://www.w3.org/1999/xlink"><g id="Layer_27"/><g id="Layer_2"/><g id="Layer_3"/><g id="Layer_4"/><g id="Layer_5"/><g id="Layer_6"/><g id="Layer_7"/><g id="Layer_8"/><g id="Layer_9"/><g id="Layer_10"/><g id="Layer_11"/><g id="Layer_12"/><g id="Layer_13"/><g id="Layer_14"/><g id="Layer_15"/><g id="Layer_16"><g id="Layer_17"/></g><g id="Layer_18"/><g id="Layer_19"/><g id="Layer_20"/><g id="Layer_21"/><g id="Layer_22"/><g id="Layer_23"><path d="M21,2H3C2.45,2,2,2.45,2,3v15v3c0,0.55,0.45,1,1,1h6c0.38,0,0.72-0.21,0.89-0.55l1.5-3L12,17.24l0.61,1.21   l1.5,3C14.28,21.79,14.62,22,15,22h6c0.55,0,1-0.45,1-1v-3V3C22,2.45,21.55,2,21,2z" fill="#FFBF42"/><g><path d="M22,17v4c0,0.55-0.45,1-1,1h-6.0001c-0.3769,0-0.7214-0.2129-0.8899-0.55l-1.5-3L12,17.24l-0.61,1.21    l-1.5,3C9.7215,21.7871,9.377,22,9.0001,22H3c-0.55,0-1-0.45-1-1v-4H22z" fill="#6059B1"/></g><g><path d="M22,3v4H2V3c0-0.55,0.45-1,1-1h18C21.55,2,22,2.45,22,3z" fill="#6059B1"/></g><g><path d="M10,12c-0.5527,0-1-0.4478-1-1V7c0-0.5522,0.4473-1,1-1s1,0.4478,1,1v4C11,11.5522,10.5527,12,10,12z" fill="#6059B1"/></g><g><path d="M14,12c-0.5527,0-1-0.4478-1-1V7c0-0.5522,0.4473-1,1-1s1,0.4478,1,1v4C15,11.5522,14.5527,12,14,12z" fill="#6059B1"/></g></g><g id="Layer_24"/><g id="Layer_25"/><g id="Layer_26"/></svg>