<?xml version="1.0" ?><!DOCTYPE svg  PUBLIC '-//W3C//DTD SVG 1.1//EN'  'http://www.w3.org/Graphics/SVG/1.1/DTD/svg11.dtd'><svg enable-background="new 0 0 512 512" height="512px" id="Loafer" version="1.1" viewBox="0 0 512 512" width="512px" xml:space="preserve" xmlns="http://www.w3.org/2000/svg" xmlns:xlink="http://www.w3.org/1999/xlink"><path d="M285.174,216.992c-7.676-0.55-15.408-1.157-22.98-1.805l-0.125-0.011l-50.877-6.929l-0.265-4.079  c-0.453-6.964,1.201-12.782,4.915-17.292c8.487-10.304,25.783-11.843,35.337-11.843c2.24,0,4.041,0.088,5.158,0.161l0.869,0.057  l52.418,22.819l-22.41,19.066L285.174,216.992z" fill="#F28F8F"/><polygon fill="#F2EAE2" points="292.868,217.579 316.832,197.191 382.091,199.93 358.128,220.318 "/><path d="M388.37,220.836c-3.535,0-7.256-0.024-11.063-0.072l-13.334-0.167l23.996-20.416l1.988,0.104  c30.816,1.621,45.903,4.277,53.133,6.221l16.404,4.41l-16.178,5.181c-3.15,1.009-6.758,1.854-10.721,2.512  C423.812,220.065,408.519,220.836,388.37,220.836z" fill="#F28F8F"/><path d="M231.648,309.251c-19.405,0-37.591-0.15-54.054-0.446l-0.146-0.005c-20.115-0.952-38.811-2.183-55.569-3.658  c-34.113-3.003-59.049-6.895-74.114-11.567l-0.205-0.063l-0.199-0.081c-6.483-2.638-10.619-4.886-12.097-5.729l-0.723-0.413  l-0.55-0.626c-5.293-6.015-4.792-19.745-3.424-40.005c1.064-15.768,2.271-33.638-1.375-48.165  c-1.46-5.821-0.893-10.833,1.688-14.899c3.334-5.252,9.344-7.865,12.629-8.956l2.013-0.668l1.879,0.983  c69.907,36.558,248.875,50.181,345.263,50.181c31.701,0,52.57-1.304,62.028-3.876l3.649-0.993l1.949,3.243  c4.09,6.808,13.713,24.454,14.736,41.224l0.045,0.746l-0.174,0.727c-1.375,5.721-3.641,11.028-6.734,15.777  c-5.389,8.276-13.068,14.563-22.822,18.686l-0.387,0.164l-0.41,0.096c-8.895,2.104-21.92,3.947-38.711,5.48l-0.346,0.031  l-1.016-0.046c-0.527-0.022-1.055-0.046-1.588-0.079l-0.127-0.004C401.839,306.34,316.812,309.251,231.648,309.251z   M296.174,241.199c-7.995,0-14.519,6.354-14.853,14.466c-0.34,8.313,6.051,15.36,14.248,15.708l59.012,2.504  c0.207,0.01,0.416,0.014,0.625,0.014c8.004,0,14.535-6.354,14.867-14.466c0.342-8.313-6.051-15.359-14.246-15.707l-59.014-2.505  C296.601,241.204,296.386,241.199,296.174,241.199z M182.432,233.468c-7.989,0-14.508,6.354-14.841,14.466  c-0.341,8.314,6.05,15.36,14.248,15.708l59.013,2.505c0.207,0.009,0.416,0.013,0.625,0.013c8.003,0,14.534-6.354,14.868-14.464  c0.342-8.313-6.05-15.36-14.247-15.708l-59.014-2.505C182.864,233.473,182.647,233.468,182.432,233.468z M69.922,210.788  c-7.318,0-13.495,5.312-14.688,12.63c-1.338,8.206,4.154,15.99,12.243,17.353l58.27,9.818c0.803,0.136,1.622,0.204,2.433,0.204  c7.318,0,13.496-5.312,14.689-12.63c1.338-8.206-4.154-15.99-12.244-17.353l-58.27-9.817  C71.552,210.856,70.733,210.788,69.922,210.788z" fill="#F28F8F"/><path d="M64.116,224.867c-0.534,3.276,1.689,6.495,4.856,7.029l58.27,9.818c3.155,0.537,6.219-1.788,6.743-5  c0.534-3.277-1.689-6.496-4.856-7.029l-58.27-9.817c-0.311-0.053-0.626-0.079-0.938-0.079  C67.084,219.788,64.588,221.972,64.116,224.867z" fill="#F2EAE2"/><path d="M66.646,245.702l58.27,9.818c1.078,0.182,2.175,0.273,3.263,0.273c9.781,0,18.034-7.077,19.624-16.826  c1.78-10.912-5.554-21.27-16.347-23.088l-58.27-9.817c-1.078-0.182-2.175-0.273-3.264-0.273c-9.781,0-18.034,7.076-19.624,16.825  C48.519,233.525,55.852,243.883,66.646,245.702z M70.859,219.867l58.27,9.817c3.167,0.534,5.39,3.752,4.856,7.029  c-0.524,3.212-3.588,5.537-6.743,5l-58.27-9.818c-3.167-0.534-5.391-3.752-4.856-7.029c0.472-2.896,2.968-5.079,5.806-5.079  C70.233,219.788,70.548,219.814,70.859,219.867z" fill="#5A5954"/><path d="M182.7,242.474c-0.081-0.003-0.162-0.005-0.243-0.005c-3.107,0-5.743,2.617-5.875,5.834  c-0.138,3.362,2.391,6.209,5.637,6.347l59.013,2.505c3.235,0.146,5.982-2.529,6.118-5.83c0.138-3.362-2.39-6.209-5.636-6.347  L182.7,242.474z" fill="#F2EAE2"/><path d="M181.625,268.639l59.013,2.504c0.281,0.012,0.558,0.018,0.836,0.018c10.694,0,19.419-8.459,19.864-19.259  c0.453-11.065-8.084-20.445-19.031-20.909l-59.014-2.505c-11.086-0.47-20.244,8.163-20.699,19.243  C162.141,258.793,170.678,268.173,181.625,268.639z M247.35,251.327c-0.135,3.301-2.882,5.976-6.118,5.83l-59.013-2.505  c-3.246-0.138-5.775-2.985-5.637-6.347c0.132-3.217,2.767-5.834,5.875-5.834c0.081,0,0.162,0.001,0.243,0.005l59.014,2.505  C244.96,245.117,247.488,247.965,247.35,251.327z" fill="#5A5954"/><path d="M296.432,250.205c-0.083-0.003-0.163-0.005-0.243-0.005c-3.106,0-5.742,2.618-5.875,5.834  c-0.137,3.362,2.391,6.209,5.637,6.347l59.014,2.505c3.262,0.136,5.982-2.53,6.117-5.829c0.139-3.362-2.391-6.209-5.637-6.347  L296.432,250.205z" fill="#F2EAE2"/><path d="M276.325,255.459c-0.452,11.065,8.084,20.445,19.031,20.909l59.014,2.505  c0.28,0.012,0.559,0.018,0.836,0.018c10.695,0,19.42-8.459,19.863-19.26c0.453-11.065-8.083-20.444-19.031-20.909l-59.013-2.505  C285.97,235.753,276.782,244.378,276.325,255.459z M361.081,259.057c-0.135,3.299-2.855,5.965-6.117,5.829l-59.014-2.505  c-3.246-0.138-5.773-2.985-5.637-6.347c0.133-3.217,2.769-5.834,5.875-5.834c0.08,0,0.16,0.002,0.243,0.005l59.013,2.505  C358.69,252.847,361.22,255.695,361.081,259.057z" fill="#5A5954"/><path d="M284.122,338.088c-60.648,0-116.797-1.417-127.437-1.701l-1.171-0.031l-24.462-12.953  c-0.287-0.152-0.611-0.232-0.936-0.232c-0.313,0-0.625,0.075-0.905,0.217c-0.579,0.295-0.98,0.854-1.074,1.496l-1.681,11.566  l-4.114,0.199c-6.993,0.338-17.333,0.742-26.886,0.742c-8.805,0-15.108-0.342-18.75-1.016c-22.862-4.23-35.371-13.999-39.688-18.002  l-1.6-1.484v-24.248l7.014,3.087c11.44,5.034,30.52,11.491,56.452,13.665c30.542,2.561,75.211,3.858,132.765,3.858  c83.309,0,167.308-2.812,170.843-2.932l0.236-0.008l0.236,0.015c2.949,0.179,5.869,0.27,8.68,0.27  c35.26,0,52.02-14.373,59.873-26.432c0.6-0.919,1.18-1.877,1.729-2.85l6.979-12.377l2.311,14.019  c5.232,31.735-10.248,39.351-31.029,46.009C432.878,334.933,374.997,338.087,284.122,338.088L284.122,338.088z" fill="#F2EAE2"/><path d="M484.827,255.438c-0.494-1.566-1.502-2.844-2.785-3.703c-5.018-20.499-17.496-38.302-18.264-39.381  c-0.713-1.006-1.648-1.762-2.691-2.259c-0.795-8.045-10.592-11.268-20.141-13.344c-11.734-2.552-29.676-4.435-53.328-5.596  c-0.012,0-0.021,0-0.033,0c-0.006,0-0.012-0.002-0.016-0.002l-71.143-2.986c-1.52-0.067-2.994,0.366-4.23,1.209l-51.673-22.494  c-0.661-0.288-1.362-0.472-2.079-0.545c-0.119-0.012-2.986-0.302-7.266-0.302c-11.141,0-31.448,1.965-42.285,15.121  c-5.038,6.116-7.367,13.703-6.985,22.612c-62.504-8.036-120.575-20.35-152.563-37.986c-1.416-0.781-3.06-1.046-4.648-0.754  c-1.461,0.269-14.469,2.938-21.338,13.622c-3.965,6.167-4.967,13.786-2.897,22.034c3.3,13.149,2.144,30.266,1.125,45.368  c-1.296,19.201-2.426,36.008,4.83,45.545v25.95c0,1.608,0.554,3.169,1.57,4.417c0.569,0.699,14.31,17.198,47.08,23.262  c4.24,0.785,10.909,1.166,20.389,1.166c15.399,0,32.449-1.019,33.168-1.063c3.312-0.199,6.028-2.697,6.505-5.98l0.486-3.345  l16.099,8.524c0.95,0.503,2.003,0.781,3.077,0.811c0.615,0.018,62.331,1.75,129.33,1.75c93.107-0.001,150.348-3.215,170.129-9.553  c14.76-4.729,29.252-11.125,35.313-25.785C494.745,299.209,493.329,282.367,484.827,255.438z M284.122,333.088  c-60.735,0-117.115-1.428-127.303-1.699l-23.427-12.404c-2.011-1.064-4.415-1.086-6.444-0.056c-2.029,1.03-3.431,2.983-3.758,5.235  l-1.088,7.49c-6.328,0.307-16.946,0.736-26.645,0.736c-10.581,0-15.542-0.508-17.841-0.933  c-21.613-3.999-33.243-13.084-37.197-16.751v-14.402c11.251,4.951,31.048,11.807,58.048,14.07  c30.677,2.572,75.486,3.876,133.183,3.876c82.749,0,165.044-2.732,171.013-2.935c3.055,0.186,6.075,0.279,8.98,0.279  c0.004,0,0.004,0,0.01,0c37.488,0,55.527-15.609,64.055-28.703c0.68-1.043,1.311-2.086,1.895-3.123  c4.424,26.824-5.988,33.503-27.621,40.434C437.329,328.256,398.286,333.087,284.122,333.088z M35.103,186.273  c2.351-3.703,6.952-5.885,9.983-6.891c70.646,36.944,249.93,50.75,347.58,50.75c37.848,0,55.107-1.813,63.34-4.052  c5.662,9.426,13.182,25.008,14.033,38.954c-0.961,3.992-2.744,9.121-6.063,14.217c-4.863,7.467-11.748,13.076-20.58,16.809  c-8.752,2.068-21.711,3.877-38.016,5.366c-0.728-0.034-1.449-0.058-2.184-0.104c-0.227-0.014-0.455-0.018-0.682-0.009  c-0.846,0.029-85.623,2.938-170.866,2.938c-19.498,0-37.5-0.149-53.964-0.446c-19.854-0.939-38.515-2.16-55.367-3.645  c-40.85-3.596-62.076-7.951-73.072-11.361c-6.167-2.508-10.083-4.629-11.5-5.439c-4.313-4.901-3.187-21.59-2.189-36.365  c1.089-16.136,2.324-34.425-1.514-49.719C32.913,192.774,33.26,189.176,35.103,186.273z M215.916,203.844  c-0.372-5.722,0.88-10.261,3.785-13.788c7.45-9.045,24.496-10.022,31.478-10.022c2.135,0,3.828,0.084,4.83,0.15l44.27,19.272  l-14.748,12.547c-7.574-0.542-15.224-1.142-22.911-1.799L215.916,203.844z M369.132,204.391l-4.904,4.172l-7.848,6.677  l-50.553-2.122l12.752-10.85L369.132,204.391z M441.792,211.334c-2.545,0.815-5.871,1.653-10.014,2.341  c-8.52,1.414-23.531,2.161-43.408,2.161c-3.865,0-7.584-0.029-11-0.072l12.324-10.486  C419.899,206.866,434.665,209.418,441.792,211.334z" fill="#5A5954"/></svg>