<?xml version="1.0" ?><!DOCTYPE svg  PUBLIC '-//W3C//DTD SVG 1.1//EN'  'http://www.w3.org/Graphics/SVG/1.1/DTD/svg11.dtd'><svg enable-background="new 0 0 800 800" height="800px" id="Layer_1" version="1.1" viewBox="0 0 800 800" width="800px" xml:space="preserve" xmlns="http://www.w3.org/2000/svg" xmlns:xlink="http://www.w3.org/1999/xlink"><g><path d="M365.171,537.668c-5.114-9.296-9.943-18.074-12.735-27.346c-11.798-39.219-11.765-82.273-10.696-123.014   c0.618-23.822,3.326-49.025,6.183-75.71c6.017-56.095,12.234-114.098-0.5-166.249c-10.596-43.434-48.098-72.618-93.304-72.618   c-7.103,0-14.289,0.748-21.341,2.222C147.813,92.69,68.447,169.792,48.142,254.297c-30.579,127.233,31.285,265.306,71.16,336.687   c22.662,51.219,71.294,136.284,144.092,136.284c11.632,0,23.448-2.231,35.129-6.635c50.371-18.998,87.671-76.696,84.88-131.35   C382.385,568.933,373.242,552.325,365.171,537.668z M287.944,692.615c-8.272,3.12-16.544,4.704-24.55,4.704   c-58.208,0-101.192-83.269-116.968-119.066c-0.2-0.435-0.401-0.865-0.635-1.278c-15.225-27.166-33.892-64.617-48.916-107.351   c2.557-2.892,75.773-85.457,134.749-116.279c25.904,10.868,50.672,27.266,50.939,27.446c6.885,4.579,16.177,2.716,20.756-4.161   c4.579-6.877,2.724-16.173-4.162-20.761c-1.27-0.853-31.703-21.037-62.871-32.907c-3.794-1.449-8.022-1.294-11.699,0.447   c-51.908,24.442-112.673,85.909-138.192,113.25c-1.589-5.633-3.092-11.322-4.496-17.063c0.668-1.023,1.337-2.063,1.755-3.271   c9.576-27.462,94.491-88.169,145.779-119.985c4.396-2.728,7.07-7.544,7.07-12.722v-94.022c0-8.268-6.701-14.974-14.974-14.974   c-8.255,0-14.975,6.706-14.975,14.974v85.733c-27.324,17.302-97.865,63.732-132.744,103.089   c-5.665-38.646-5.815-78.571,3.443-117.126c17.497-72.777,88.491-141.744,161.64-157.019c5.047-1.058,10.177-1.593,15.225-1.593   c31.135,0,56.938,20.009,64.208,49.777c11.498,47.062,5.565,102.417-0.184,155.95c-2.924,27.299-5.699,53.09-6.351,78.125   c-1.12,43.167-1.12,88.954,11.966,132.418c3.693,12.309,9.526,22.912,15.175,33.161c7.453,13.532,13.888,25.223,14.573,38.693   C355.628,632.51,326.215,678.184,287.944,692.615z" fill="#4D4D4D"/><path d="M302.534,300.933c-18.717-15.935-36.799-25.449-37.568-25.846c-7.337-3.835-16.361-0.991-20.205,6.342   c-3.828,7.337-0.986,16.378,6.351,20.205c0.15,0.084,15.826,8.323,32.004,22.102c2.824,2.398,6.266,3.572,9.692,3.572   c4.245,0,8.457-1.788,11.415-5.268C309.586,315.743,308.818,306.296,302.534,300.933z" fill="#4D4D4D"/><path d="M159.461,171.037c-42.114,19.548-68.136,79.049-74.502,126.059c-1.104,8.198,4.646,15.735,12.835,16.846   c0.685,0.092,1.37,0.134,2.038,0.134c7.371,0,13.805-5.453,14.807-12.969c6.284-46.375,30.968-90.626,57.423-102.905   c7.504-3.489,10.763-12.392,7.287-19.892C175.855,170.803,166.931,167.557,159.461,171.037z" fill="#4D4D4D"/><path d="M304.975,557.435c4.579-6.891,2.707-16.182-4.178-20.762c-6.885-4.562-16.194-2.698-20.774,4.183   c-0.116,0.188-13.001,18.923-36.131,31.34c-20.055,9.409-40.494,12.718-40.895,12.779c-8.156,1.267-13.754,8.913-12.5,17.08   c1.153,7.4,7.52,12.698,14.79,12.698c0.752,0,1.521-0.059,2.306-0.185c1.002-0.154,24.851-3.924,49.736-15.625   C288.111,582.456,304.306,558.445,304.975,557.435z" fill="#4D4D4D"/><path d="M315.436,596.152c-6.652-4.909-16.027-3.502-20.94,3.148c-0.1,0.144-10.746,14.098-28.779,22.441   c-15.141,5.79-30.015,6.706-30.215,6.715c-8.239,0.45-14.574,7.495-14.139,15.738c0.418,7.988,7.037,14.193,14.941,14.193   c0.268,0,0.535-0.014,0.802-0.026c0.802-0.041,19.92-1.119,39.859-8.856c0.268-0.104,0.535-0.213,0.785-0.335   c25.553-11.64,40.226-31.252,40.845-32.079C323.508,610.44,322.088,601.065,315.436,596.152z" fill="#4D4D4D"/><path d="M751.856,254.297C731.567,169.792,652.186,92.69,567.221,74.955c-7.053-1.474-14.238-2.222-21.324-2.222   c-45.207,0-82.709,29.184-93.32,72.618c-12.735,52.15-6.52,110.154-0.502,166.249c2.874,26.685,5.582,51.888,6.2,75.71   c1.052,40.74,1.104,83.795-10.696,123.01c-2.791,9.275-7.637,18.054-12.752,27.35c-8.07,14.657-17.213,31.265-18.231,51.61   c-2.774,54.658,34.51,112.356,84.88,131.354c11.683,4.403,23.497,6.635,35.129,6.635c0,0,0,0,0.018,0   c72.781,0,121.413-85.065,144.075-136.284C720.571,519.603,782.439,381.53,751.856,254.297z M654.225,576.975   c-0.234,0.413-0.451,0.844-0.651,1.278c-15.777,35.802-58.744,119.075-116.97,119.066c-8.004,0-16.276-1.584-24.55-4.704   c-38.271-14.432-67.667-60.105-65.562-101.819c0.686-13.462,7.12-25.152,14.573-38.685c5.648-10.249,11.481-20.853,15.191-33.165   c12.1-40.223,12.969-82.412,12.148-122.701c1.99-0.293,3.961-0.974,5.767-2.106c0.485-0.3,45.308-28.29,74.252-40.769   c58.978,30.838,132.16,113.361,134.717,116.253C688.1,512.357,669.433,549.809,654.225,576.975z M713.602,436.66   c-25.519-27.342-86.284-88.809-138.175-113.25c-3.677-1.737-7.905-1.892-11.716-0.447c-23.814,9.067-60.13,30.404-76.676,40.427   c-0.518-7.383-1.135-14.877-1.854-22.448c21.894-20.238,68.637-37.31,87.104-43.527c51.423,32.079,134.582,91.741,144.059,118.911   c0.418,1.208,1.086,2.248,1.754,3.271C716.694,425.338,715.19,431.027,713.602,436.66z M726.203,378.417   c-34.895-39.357-105.421-85.787-132.761-103.089v-85.733c0-8.268-6.701-14.974-14.975-14.974c-8.272,0-14.974,6.706-14.974,14.974   v79.157c-16.262,5.432-54.063,19.152-81.872,37.402c-5.666-52.827-11.282-107.292,0.049-153.701   c7.27-29.765,33.073-49.774,64.226-49.774c5.047,0,10.161,0.535,15.208,1.593c73.149,15.274,144.158,84.241,161.64,157.019   C732.002,299.846,731.853,339.771,726.203,378.417z" fill="#4D4D4D"/><path d="M693.381,227.795c-3.761-7.361-12.768-10.265-20.154-6.521c-7.37,3.765-10.279,12.785-6.519,20.151   c9.393,18.379,15.844,39.019,18.651,59.7c1.02,7.507,7.453,12.952,14.823,12.952c0.668,0,1.354-0.042,2.039-0.139   c8.188-1.115,13.921-8.661,12.818-16.857C711.73,272.759,704.427,249.45,693.381,227.795z" fill="#4D4D4D"/><path d="M597.286,585.021c-8.975-1.571-18.166-3.986-27.292-7.187c-7.805-2.72-16.344,1.383-19.084,9.188   c-2.725,7.805,1.387,16.349,9.191,19.082c10.662,3.73,21.44,6.563,32.021,8.414c0.868,0.158,1.737,0.234,2.59,0.234   c7.152,0,13.47-5.131,14.739-12.4C610.873,594.205,605.425,586.45,597.286,585.021z" fill="#4D4D4D"/><path d="M564.497,628.457c-0.151-0.009-15.058-0.916-30.217-6.715c-18.015-8.335-28.71-22.356-28.777-22.441   c-4.913-6.65-14.272-8.058-20.94-3.148c-6.651,4.913-8.056,14.288-3.141,20.939c0.601,0.827,15.274,20.439,40.827,32.079   c0.267,0.122,0.518,0.23,0.785,0.335c19.938,7.737,39.056,8.815,39.858,8.856c0.267,0.013,0.535,0.026,0.802,0.026   c7.889,0,14.49-6.184,14.925-14.165C579.07,635.98,572.736,628.928,564.497,628.457z" fill="#4D4D4D"/></g></svg>