<?xml version="1.0" ?><!DOCTYPE svg  PUBLIC '-//W3C//DTD SVG 1.1//EN'  'http://www.w3.org/Graphics/SVG/1.1/DTD/svg11.dtd'><svg enable-background="new 0 0 512 512" height="512px" id="Calque_1" version="1.1" viewBox="0 0 512 512" width="512px" xml:space="preserve" xmlns="http://www.w3.org/2000/svg" xmlns:xlink="http://www.w3.org/1999/xlink"><g><path d="M98.806,307.304h-61.18c-1.28-20.591-1.31-47.92,3.45-76.2c6.479,4.55,15.939,11.819,25.399,21.35   c11.37,11.45,22.75,26.17,29.03,43.38C96.857,299.545,97.976,303.375,98.806,307.304z" fill="#DAE8EB"/><path d="M475.106,322.304c0.011,2.449-0.05,4.899-0.18,7.351c-0.131,2.46-0.311,4.91-0.53,7.35H40.687   c-0.301-2-0.641-4.47-1-7.35c-0.271-2.21-0.561-4.681-0.83-7.351H475.106z" fill="#DAE8EB"/><path d="M473.646,307.304h-95c7.051-17.739,13.351-44.279,16.21-57.149c3.221,0.76,6.32,1.55,9.301,2.37   c36.579,9.989,54.829,23.729,63.56,38.96C470.666,296.615,472.526,301.915,473.646,307.304z" fill="#DAE8EB"/><path d="M385.097,247.915c-3.021,13.58-10.021,43.05-17.28,59.391h-258.82c-0.55-2.971-1.24-5.88-2.06-8.721   c-6.95-24.18-23.07-43.89-38.021-57.87c-10.28-9.63-20-16.55-25.8-20.359c2.01-9.45,4.59-18.92,7.88-28.2   c6.93,4.68,17.82,11.63,30.95,18.56c22.66,11.95,51.96,23.83,78.979,23.83c14.19,0,26.65-3.3,37.04-9.81   c21.57-13.53,28.79-33.75,29.98-49.74c11.38,8.08,29.59,20.15,52.71,32.54l-5.931,13.17c-0.3,0.66-0.439,1.36-0.439,2.05   c0,1.9,1.101,3.721,2.95,4.561c0.66,0.3,1.359,0.439,2.05,0.439c1.87,0,3.67-1.069,4.521-2.869c0.021-0.03,0.029-0.051,0.04-0.08   l5.689-12.641c4.391,2.24,8.939,4.48,13.62,6.69l-4.24,9.41l-1.279,2.85c-1.141,2.521-0.011,5.48,2.51,6.61   c0.66,0.3,1.359,0.439,2.051,0.439c1.899,0,3.72-1.09,4.56-2.939l2.131-4.73l3.359-7.47c4.819,2.15,9.771,4.25,14.84,6.3   l-2.149,4.76l-3.351,7.44c-1.13,2.52-0.01,5.479,2.511,6.62c0.659,0.3,1.359,0.439,2.05,0.439c1.899,0,3.729-1.1,4.561-2.949   l4.2-9.32l1.5-3.34c5.08,1.92,10.271,3.76,15.56,5.52l-0.67,1.49l-4.449,9.88c-0.53,1.17-0.561,2.44-0.2,3.58   c0.42,1.3,1.37,2.42,2.71,3.029c0.66,0.301,1.359,0.439,2.051,0.439c1.899,0,3.729-1.1,4.56-2.95l1.931-4.279l3.37-7.471   l0.29-0.649c3.609,1.1,7.25,2.149,10.939,3.16C376.646,245.855,380.856,246.915,385.097,247.915z" fill="#FF5959"/><path d="M68.916,240.715c-10.28-9.63-20-16.55-25.8-20.359   c2.01-9.45,4.59-18.92,7.88-28.2c6.93,4.68,17.82,11.63,30.95,18.56C76.687,220.085,71.836,230.455,68.916,240.715z" enable-background="new    " opacity="0.3"/><path d="M95.506,295.835c1.351,3.71,2.47,7.54,3.3,11.471h-61.18   c-1.28-20.591-1.31-47.92,3.45-76.2c6.479,4.55,15.939,11.82,25.399,21.35C64.206,271.105,70.626,287.926,95.506,295.835z" enable-background="new    " opacity="0.3"/><path d="M385.097,247.915c-3.021,13.58-10.021,43.05-17.28,59.391h-258.82   c-0.55-2.971-1.24-5.88-2.06-8.721c39.239,6.891,111.979-2.96,239.709-45.14c3.7-1.22,7.45-2.47,11.25-3.76   c4.79-1.61,9.66-3.26,14.601-4.96C376.646,245.855,380.856,246.915,385.097,247.915z" enable-background="new    " opacity="0.3"/><path d="M227.947,174.995c11.38,8.08,29.59,20.15,52.71,32.54   l-5.931,13.17c-0.3,0.66-0.439,1.36-0.439,2.05l-28.271-6.319c-126.43,86.02-164.069-5.721-164.069-5.721   c22.66,11.95,51.96,23.83,78.979,23.83c14.19,0,26.65-3.3,37.04-9.81C219.536,211.205,226.756,190.985,227.947,174.995z" enable-background="new    " fill="#FFFFFF" opacity="0.7"/><path d="M289.536,212.165c4.391,2.24,8.939,4.48,13.62,6.69l-4.24,9.41   l-15.109-3.38c0.021-0.03,0.029-0.051,0.04-0.08L289.536,212.165z" enable-background="new    " fill="#FFFFFF" opacity="0.7"/><path d="M312.246,223.025c4.819,2.15,9.771,4.25,14.84,6.3l-2.149,4.76   l-16.05-3.59L312.246,223.025z" enable-background="new    " fill="#FFFFFF" opacity="0.7"/><path d="M336.406,232.975c5.079,1.92,10.271,3.76,15.56,5.52l-0.67,1.49   l-16.391-3.67L336.406,232.975z" enable-background="new    " fill="#FFFFFF" opacity="0.7"/><path d="M372.496,244.725l-11.229-2.511l0.29-0.649   C365.166,242.665,368.807,243.715,372.496,244.725z" enable-background="new    " fill="#FFFFFF" opacity="0.7"/><path d="M473.646,307.304h-95c7.051-17.739,13.351-44.279,16.21-57.149   c3.221,0.76,6.32,1.55,9.301,2.37c-2.49,27.63,6.409,57.08,63.56,38.96C470.666,296.615,472.526,301.915,473.646,307.304z" enable-background="new    " opacity="0.3"/><path d="M467.716,291.485c-24.06-0.261-63.56-38.96-63.56-38.96   C440.736,262.514,458.986,276.255,467.716,291.485z" enable-background="new    " fill="#FFFFFF" opacity="0.7"/><path d="M474.927,329.655c-0.131,2.46-0.311,4.91-0.53,7.35H40.687   c-0.301-2-0.641-4.47-1-7.35H474.927z" enable-background="new    " opacity="0.3"/></g></svg>