<?xml version="1.0" ?><svg id="Layer_1" style="enable-background:new 0 0 512 512;" version="1.1" viewBox="0 0 512 512" xml:space="preserve" xmlns="http://www.w3.org/2000/svg" xmlns:xlink="http://www.w3.org/1999/xlink"><style type="text/css">
	.st0{fill:#3B4652;}
	.st1{fill:#2B79C2;}
</style><g><path class="st0" d="M345.5,343.5c0-41.3,20.7-79.3,55.4-101.8l7.6-4.9v-54.6H329v142c0,8.5-3.4,16.8-9.4,22.8l-41.4,41.4l-7.4,7.4   c20.6,16,36,37.1,44.9,61.3l48.6-48.6l-1.8-3C351.4,386.7,345.5,365.3,345.5,343.5z"/><path class="st1" d="M260.8,405.7l-1.9,1.9L222,444.4l-3.5,3.5c0,0,0,0,0,0l-13.9,13.9l-0.7-2.1c-3.6,2.4-7.4,4.5-11.4,6.2   c1.3,1.6,2.7,3.1,4.2,4.6c29.1,29.1,76.3,29.1,105.4,0l2.4-2.4C296.8,442.9,281.3,421.2,260.8,405.7z"/><path class="st0" d="M192,376.5c13.2,13.7,23.5,30.2,30.2,48l26.8-26.8l21.8-21.8l-1.8-3c-11.1-18.6-17-40.1-17-61.9   c0-41.3,20.7-79.3,55.4-101.8l7.6-4.9v-54.6H145.7v130l-44.3,54.5C135.9,336.5,167.8,351.3,192,376.5z"/><path class="st1" d="M140.3,135.7h5.3H315h5.3c9.3,0,16.8-7.5,16.8-16.8V56.8V41.1c0-9.3-7.5-16.8-16.8-16.8h-180   c-9.3,0-16.8,7.5-16.8,16.8v77.8C123.5,128.2,131,135.7,140.3,135.7z"/><path class="st1" d="M413.8,56.8h-62.7v62.1c0,14-9.4,25.8-22.1,29.5v19.8h84.8c9.3,0,16.8-7.5,16.8-16.8V73.6   C430.6,64.3,423.1,56.8,413.8,56.8z"/><path class="st1" d="M266,311c0,20,5.5,38.7,15,54.7l28.7-28.7c3.4-3.4,5.3-8,5.3-12.9V220.9C285.5,240,266,273.2,266,311z"/><path class="st1" d="M211.1,435.5c-5.8-18.7-16-35.5-29.2-49.3c-22.7-23.6-54.6-38.3-90-38.3h-0.5C74.7,376.7,79,413.8,103.2,438   c21.9,21.9,54.2,27.4,81.2,16.2c8.8-3.6,17.1-9,24.3-16.2L211.1,435.5z"/><path class="st1" d="M359.5,343.5c0,20,5.5,38.7,15,54.7l0,0l28.7-28.7c3.4-3.4,5.3-8,5.3-12.9V253.4c0,0,0,0,0,0   C379,272.5,359.5,305.7,359.5,343.5z"/></g></svg>