<?xml version="1.0" ?><!DOCTYPE svg  PUBLIC '-//W3C//DTD SVG 1.1//EN'  'http://www.w3.org/Graphics/SVG/1.1/DTD/svg11.dtd'><svg enable-background="new 0 0 512 512" height="512px" id="Underwear" version="1.1" viewBox="0 0 512 512" width="512px" xml:space="preserve" xmlns="http://www.w3.org/2000/svg" xmlns:xlink="http://www.w3.org/1999/xlink"><g><path d="M458.165,379.731L436.693,157.86c0.245-0.475,0.396-1.004,0.396-1.575c0-0.808-0.289-1.542-0.755-2.13l-4.091-42.27   c-0.172-1.769-1.658-3.118-3.434-3.118H389.06c-1.905,0-3.45,1.545-3.45,3.45s1.545,3.45,3.45,3.45h36.618l3.597,37.168H82.725   l3.597-37.168H341.9c1.906,0,3.45-1.545,3.45-3.45s-1.544-3.45-3.45-3.45H83.189c-1.777,0-3.263,1.35-3.434,3.118L53.835,379.731   c-0.14,1.438,0.632,2.812,1.934,3.439c0.323,0.156,8.088,3.878,21.869,8.108c0.337,0.104,0.679,0.154,1.014,0.154   c1.476,0,2.841-0.955,3.297-2.438c0.559-1.821-0.464-3.751-2.285-4.311c-9.134-2.806-15.581-5.403-18.722-6.755l1.734-17.915   c6.804,2.536,21.386,7.392,42.941,11.569c18.96,3.676,45.982,7.255,79.302,7.255c13.99,0,29.102-0.642,45.182-2.161l-2.131,10.965   c-33.298,8.493-67.432,10.773-101.485,6.779c-1.889-0.225-3.606,1.133-3.828,3.025c-0.223,1.892,1.132,3.605,3.024,3.828   c11.128,1.305,22.26,1.957,33.373,1.957c24.471,0,48.837-3.161,72.767-9.459c1.281-0.338,2.256-1.378,2.509-2.678l4.207-21.653   c5.496,0.724,11.335,1.111,17.454,1.111c6.124,0,11.973-0.388,17.477-1.112l0.757,3.896c0.013,0.078,0.027,0.154,0.045,0.229   l3.405,17.528c0.252,1.3,1.227,2.34,2.509,2.678c26.448,6.961,51.19,9.402,72.9,9.402c20.565,0,38.411-2.193,52.386-4.814   c31.199-5.85,49.979-14.812,50.765-15.19C457.532,382.543,458.305,381.17,458.165,379.731z M231.472,369.615   c-93.899,9.273-155.728-11.979-168.106-16.734l18.691-193.146h106.742c-3.955,22.296-21.754,126.146-14.843,150.938   c0.178,2.352,1.374,13.434,8.545,25.514c6.991,11.777,21.17,26.671,49.217,32.162L231.472,369.615z M275.676,362.169   c-6.071,0.985-12.695,1.484-19.688,1.484c-6.988,0-13.604-0.499-19.668-1.485c-52.703-8.486-55.411-50.475-55.499-52.25   c-0.014-0.282-0.061-0.563-0.143-0.834c-5.835-19.456,7.061-104.549,15.125-149.349h120.393   c8.064,44.8,20.959,129.893,15.124,149.349c-0.081,0.271-0.128,0.552-0.141,0.834C331.158,310.354,328.579,353.65,275.676,362.169z    M280.282,368.349c28.048-5.492,42.226-20.384,49.217-32.161c7.172-12.08,8.366-23.162,8.545-25.514   c6.911-24.793-10.89-128.643-14.844-150.938h106.742l18.69,193.14c-12.309,4.746-74.024,26.037-168.104,16.741L280.282,368.349z    M284.03,387.643l-2.13-10.965c15.92,1.506,30.929,2.154,44.943,2.154c65.363,0,109.064-13.924,122.478-18.852l1.736,17.943   C438.22,383.409,370.04,409.57,284.03,387.643z"/><path d="M364.9,115.668h1.15c1.906,0,3.45-1.545,3.45-3.45s-1.544-3.45-3.45-3.45h-1.15c-1.906,0-3.449,1.545-3.449,3.45   S362.994,115.668,364.9,115.668z"/><path d="M103.771,390.792l-1.389-0.286c-1.865-0.393-3.694,0.807-4.082,2.673c-0.39,1.865,0.807,3.692,2.672,4.081l1.422,0.294   c0.232,0.048,0.464,0.069,0.692,0.069c1.606,0,3.044-1.127,3.377-2.762C106.843,392.994,105.638,391.172,103.771,390.792z"/><path d="M231.16,119.98c-1.909,0-3.45,1.541-3.45,3.45v20.733c0,1.909,1.541,3.45,3.45,3.45h49.68c1.909,0,3.45-1.541,3.45-3.45   v-20.733c0-1.909-1.541-3.45-3.45-3.45H231.16z M277.39,140.715h-42.78V126.88h42.78V140.715z"/></g></svg>