<?xml version="1.0" ?><svg id="Layer_1" style="enable-background:new 0 0 24 24;" version="1.1" viewBox="0 0 24 24" xml:space="preserve" xmlns="http://www.w3.org/2000/svg" xmlns:xlink="http://www.w3.org/1999/xlink"><style type="text/css">
	.st0{fill:#1E232D;}
</style><path class="st0" d="M22,9c-1.6,0-3-1.3-3-3V0h-5v4c0,1.1-0.9,2-2,2c-1.1,0-2-0.9-2-2V0H5v6c0,1.6-1.4,3-3,3H1v15h22V9H22z M21,22H3  V10.9C5.3,10.4,7,8.4,7,6V2h1v2c0,2.2,1.8,4,4,4s4-1.8,4-4V2h1v4c0,2.4,1.7,4.4,4,4.9V22z M8,13h5.4l-3.2,6.6l1.8,0.9l4.7-9.4H8V13z  "/></svg>