<?xml version="1.0" ?><svg id="Capa_1" style="enable-background:new 0 0 512 512;" version="1.1" viewBox="0 0 512 512" xml:space="preserve" xmlns="http://www.w3.org/2000/svg" xmlns:xlink="http://www.w3.org/1999/xlink"><style type="text/css">
	.st0{fill:#A9A0C3;}
	.st1{fill:#5A4A42;}
	.st2{fill:#FFFFFF;}
	.st3{fill:#C3A898;}
	.st4{fill:#231F20;}
	.st5{fill:#D4C1B5;}
	.st6{fill:#806F66;}
	.st7{fill:#1D1D1D;}
	.st8{fill:#D31F2B;}
</style><g><path class="st0" d="M475.5,292.5c0,41.3-11.4,80-31.3,112.9c-33.8,56.2-92,96-160,104.8c-0.1,0-0.3,0-0.4,0   c-9.1,1.2-18.4,1.8-27.8,1.8c0,0,0,0-0.1,0c-9.4,0-18.7-0.6-27.8-1.8c-0.2,0-0.4,0-0.6-0.1c-67.9-8.8-126-48.5-159.7-104.7   c-19.9-33-31.3-71.6-31.3-112.9c0-77.7,40.3-145.9,101.2-184.9C171.8,85.7,212.4,73,256,73c44.3,0,85.5,13.1,120.1,35.7   C435.9,147.9,475.5,215.6,475.5,292.5z"/><path class="st1" d="M417.9,141.3c0.9-3.3,2-10.6-15.6-38.2c-9-14.2-11.6-15.9-17.9-25.7c-13.7-21.3-14.4-33.6-19.5-42.1   C356.5,21.2,297.3,0,255.3,0C193.8,0,154,21.2,145.6,35.2c-5.1,8.5-5.8,20.8-19.5,42.1c-6.3,9.8-8.9,11.5-17.9,25.7   c-17.6,27.6-16.5,35-15.6,38.2c2.8,9.7,11.4,9,13.3,18.7c2,10.3-7.3,13.7-8.6,28.9c-0.7,7.6,1.1,13.4,4.7,25   c5.1,16.7,9.8,19.4,8.6,28.1c-1.3,9.5-7.4,10.3-7,17.9c0.4,7.5,6.4,8.8,15.6,21.8c6.6,9.3,12.5,17.6,10.9,26.5   c-1.7,9.6-10.4,10.6-10.1,17.9c0.3,8.6,12.1,9.1,19.5,23.4c1.5,3,6.2,12,3.9,21.8c-2.2,9.4-8.8,10.7-8.8,17   c0,9.5,14.9,16.6,22.8,20.4c15.2,7.3,28.1,8.1,42.1,9.4c11.4,1,30.1,2.8,55.2,5.3c0,0,0,0.1,0,0.1c0.2,0,0.4,0,0.6-0.1   c0.2,0,0.4,0,0.6,0.1c0,0,0-0.1,0-0.1c25-2.6,43.7-4.3,55.2-5.3c14-1.3,27-2.1,42.1-9.4c7.9-3.8,22.8-10.9,22.8-20.4   c0-6.3-6.6-7.6-8.8-17c-2.3-9.8,2.4-18.9,3.9-21.8c7.4-14.3,19.2-14.8,19.5-23.4c0.2-7.4-8.5-8.3-10.1-17.9   c-1.5-8.9,4.3-17.2,10.9-26.5c9.2-13,15.2-14.4,15.6-21.8c0.4-7.6-5.7-8.5-7-17.9c-1.2-8.7,3.4-11.4,8.6-28.1   c3.6-11.6,5.3-17.3,4.7-25c-1.3-15.2-10.6-18.5-8.6-28.9C406.5,150.3,415.2,150.9,417.9,141.3z"/><path class="st2" d="M308.5,378.7l-2.3-12.4c0,0-1.7,2.8-4.9,6.7c-0.9,1.1-2,2.4-3.2,3.7c-0.4,0.4-0.8,0.9-1.2,1.3   c-8.1,8.5-21.2,18.6-37.9,19.7c-0.5,0-1.1,0-1.6,0c-0.5,0-0.8,0-1.3,0c-0.7,0-1.3,0-1.9-0.1h-1.1c-12.1-0.8-22.3-6.3-30.1-12.5   c-3.4-2.7-6.4-5.6-8.9-8.2c-1.3-1.4-2.4-2.7-3.4-3.9c-3.2-3.9-4.9-6.7-4.9-6.7l-4.4,23.2l0.1,0.5l26.2,120.1c0.2,0,0.4,0.1,0.6,0.1   c9.1,1.2,18.4,1.8,27.8,1.8c0,0,0,0,0.1,0c9.4,0,18.7-0.6,27.8-1.8c0.1,0,0.3,0,0.4,0l26.3-120.6L308.5,378.7z"/><g><path class="st3" d="M210.5,318.5v57.1c0,0,13,22.1,45.3,22.1v-59.9C255.9,337.9,238.8,324.7,210.5,318.5z"/></g><path class="st4" d="M228.1,510.2c-0.2,0-0.4,0-0.6-0.1c-67.9-8.8-126-48.5-159.7-104.7c2.6-0.5,6.9-1.4,12.3-2.6   c8.8-1.9,20.8-4.8,33.9-8.4h0c8.3-2.3,16.9-4.8,25.6-7.7c34-11.1,67.5-26.4,70.9-44.4c0,0,0-0.1,0-0.2c0,0,1.4,14.3,3.4,34.8   c0.1,1.1,0.2,2.3,0.3,3.5c0.2,2.1,0.4,4.2,0.7,6.4C219,427.7,224.8,485.4,228.1,510.2z"/><g><path class="st5" d="M301.2,318.5v57.1c0,0-13,22.1-45.3,22.1v-59.9C255.9,337.9,272.9,324.7,301.2,318.5z"/></g><g><path class="st6" d="M255.9,340.8c-21,0-45.3-20.8-45.3-20.8v11.8c14.5,17.8,45.3,20.6,45.3,20.6s30.9-2.8,45.3-20.6V320    C301.2,320,276.9,340.8,255.9,340.8z"/></g><g><path class="st3" d="M255.9,339.2c0,0-135.9-19.2-116-225.3h116V339.2z"/></g><g><path class="st3" d="M135.5,196.9c-11.5,4.3-17.2,14.3-17.2,27.3c0,16.8,13.6,30.4,30.4,30.4c1.8,0,3.5-0.2,5.2-0.5    C146.8,237.9,138.6,219.8,135.5,196.9z"/></g><g><path class="st5" d="M376.2,196.9c11.5,4.3,17.2,14.3,17.2,27.3c0,16.8-13.6,30.4-30.4,30.4c-1.8,0-3.5-0.2-5.2-0.5    C364.9,237.9,373.1,219.8,376.2,196.9z"/></g><ellipse class="st7" cx="206.4" cy="206.7" rx="12.4" ry="14.4"/><path class="st8" d="M255.9,272.4c0,0-8.1-2.4-16.9,6.4h16.9"/><path class="st8" d="M255.9,284c0,0-6.5,1.9-13.7-5.2h13.7v4.1V284z"/><path class="st4" d="M444.2,405.4c-33.8,56.2-92,96-160,104.8c-0.1,0-0.3,0-0.4,0c3.5-26.2,9.8-89.1,13.9-130   c0-0.8,0.1-1.4,0.2-2.1c0-0.5,0.1-0.9,0.1-1.4c1.6-16.3,2.8-28.6,3.2-32.9c0.1-1.1,0.1-1.6,0.1-1.6c3,16.4,30.8,30.6,61.6,41.4h0   C396.7,395.5,433.7,403.4,444.2,405.4z"/><g><path class="st5" d="M255.9,339.2c0,0,135.9-19.2,116-225.3h-116V339.2z"/></g><ellipse class="st7" cx="305.3" cy="206.7" rx="12.4" ry="14.4"/><path class="st8" d="M255.9,278.8h16.9c-8.8-8.8-16.9-6.4-16.9-6.4"/><path class="st8" d="M255.9,284c0,0,6.5,1.9,13.7-5.2h-13.7v4.1V284z"/><path class="st1" d="M131.8,94.5l92.4-17.5l159.7,24v88.9c0,0-11.7,41.2-36.3,45.3c0,0,24-25.1,16.4-51   c-7.6-25.9-70.9-9.5-85.5-38.2s-81.8-38.6-92.9-25.7s-46.3,31.8-50.1,76.7l-14.3-62.1L131.8,94.5z"/></g></svg>